<svg width="21" height="22" viewBox="0 0 21 22" fill="none" xmlns="http://www.w3.org/2000/svg">
<path d="M15 8.66663C15 7.34054 14.4732 6.06877 13.5355 5.13109C12.5979 4.19341 11.3261 3.66663 10 3.66663C8.67392 3.66663 7.40215 4.19341 6.46447 5.13109C5.52678 6.06877 5 7.34054 5 8.66663C5 14.5 2.5 16.1666 2.5 16.1666H17.5C17.5 16.1666 15 14.5 15 8.66663Z" stroke="#8A8987" stroke-width="2" stroke-linecap="round" stroke-linejoin="round"/>
<path d="M11.44 19.5C11.2935 19.7526 11.0832 19.9622 10.8302 20.1079C10.5771 20.2537 10.2903 20.3304 9.99831 20.3304C9.70632 20.3304 9.41947 20.2537 9.16645 20.1079C8.91344 19.9622 8.70315 19.7526 8.55664 19.5" stroke="#8A8987" stroke-width="2" stroke-linecap="round" stroke-linejoin="round"/>
<rect x="11.5" y="1.83334" width="7.83333" height="7.83333" rx="3.91667" fill="#425DB6"/>
<rect x="11.5" y="1.83334" width="7.83333" height="7.83333" rx="3.91667" stroke="white" stroke-width="2"/>
</svg>
