<svg width="88" height="70" viewBox="0 0 88 70" fill="none" xmlns="http://www.w3.org/2000/svg">
<g clip-path="url(#clip0_1_1561)">
<path d="M76.2692 35.0949C76.4446 34.8281 76.579 34.615 76.7222 34.4074C76.9927 34.0135 77.3399 33.9794 77.6158 34.3697C77.8252 34.6687 77.9757 35.0161 78.108 35.3599C78.221 35.6517 78.2745 35.9651 78.3462 36.2713C78.4644 36.7762 78.7384 37.1861 79.2039 37.392C80.4429 37.9382 81.2916 38.862 81.9218 40.0294C82.0687 40.3034 82.2888 40.5398 82.4876 40.7834C82.9979 41.4081 83.6586 41.777 84.4482 41.922C84.7866 41.9848 85.1304 42.0152 85.4634 42.094C85.7946 42.1727 86.1366 42.2532 86.4375 42.4055C86.946 42.6614 87.0122 43.102 86.6434 43.5317C86.4787 43.7232 86.296 43.9024 86.0901 44.1208C86.2012 44.3373 86.2853 44.5469 86.407 44.7295C86.6773 45.1342 86.9782 45.5174 87.2467 45.9219C87.6299 46.5002 87.569 46.7993 86.9962 47.2183C86.8117 47.3525 86.6184 47.4761 86.4214 47.5926C86.0417 47.8164 85.8681 48.1565 85.8394 48.5827C85.8269 48.7831 85.8179 48.9836 85.8179 49.1824C85.8179 50.1779 85.5618 51.1072 85.1017 51.9809C84.8493 52.4609 84.5449 52.9156 84.2906 53.3955C84.0507 53.8502 83.7946 54.3051 83.6406 54.7921C83.2987 55.87 83.7715 56.7079 84.8583 57.057C85.1842 57.1609 85.5224 57.2362 85.8448 57.3506C86.6505 57.6354 86.7759 58.2585 86.1384 58.8422C85.9505 59.014 85.7212 59.143 85.5137 59.2951C85.3328 59.4276 85.1538 59.5637 85.0014 59.6783C84.9854 60.0113 85.1448 60.2191 85.2844 60.434C85.3936 60.6021 85.5207 60.7597 85.6085 60.9389C85.7821 61.2915 85.7123 61.6174 85.399 61.8556C85.2198 61.9934 85.0175 62.1169 84.8064 62.1922C84.2691 62.3837 83.7177 62.5377 83.177 62.7204C82.8583 62.8278 82.493 62.8171 82.1833 63.1089C82.2279 63.2521 82.2621 63.4096 82.3246 63.5546C82.3928 63.7105 82.5037 63.8485 82.5699 64.0041C82.7114 64.3372 82.6166 64.6397 82.2836 64.7937C82.0293 64.9119 81.7464 64.9942 81.4671 65.0319C80.0115 65.227 78.5611 65.2628 77.1323 64.835C76.7778 64.7293 76.4107 64.6595 76.0472 64.5824C75.7751 64.5251 75.5352 64.5789 75.3668 64.8242C75.3508 64.8475 75.3329 64.8706 75.3149 64.8923C73.4223 67.2611 70.887 68.5377 67.9883 69.1929C67.0626 69.4025 66.1244 69.4849 65.1754 69.4561C62.658 69.3809 60.8317 68.201 59.6428 66.0024C59.0357 64.8815 58.7063 63.6657 58.4897 62.4231C58.0081 59.6765 57.8273 56.9119 58.1459 54.1332C58.2999 52.7974 58.5739 51.4797 58.9211 50.1798C58.9732 49.9883 59.0107 49.7949 59.0626 49.5673C58.8728 49.3919 58.6902 49.2147 58.5022 49.0464C57.9185 48.5289 57.4405 47.9256 57.0518 47.2504C56.9391 47.0535 56.8478 46.8424 56.7601 46.6311C56.6205 46.2926 56.6186 45.9632 56.8514 45.657C56.9195 45.5674 56.9749 45.4691 57.0716 45.3222C56.8334 44.9193 56.59 44.5057 56.3429 44.092C56.0636 43.6229 55.8165 43.1432 55.6912 42.606C55.5085 41.8182 55.6196 41.6194 56.4217 41.3669C56.4754 41.3508 56.5238 41.3204 56.6259 41.2721C56.633 41.1056 56.6509 40.9122 56.649 40.7206C56.6401 39.9775 56.6259 39.2327 56.615 38.4896C56.615 38.375 56.6186 38.2606 56.6311 38.1459C56.7207 37.3132 56.9391 37.1092 57.6428 37.2597C57.6624 37.2632 57.6912 37.2345 57.7825 37.1844C57.8327 36.9337 57.8827 36.6293 57.9579 36.3302C58.0905 35.8038 58.2103 35.2722 58.3895 34.7619C58.5864 34.2015 58.7584 34.1406 59.3671 34.273C59.4225 34.2855 59.4781 34.2874 59.5784 34.3017C59.6661 34.1477 59.7591 33.9758 59.8595 33.8093C60.1871 33.2704 60.4628 33.1539 61.0788 33.3115C61.2703 33.3598 61.4583 33.4369 61.6392 33.5211C62.1585 33.761 62.6811 33.9937 63.1861 34.2624C64.3554 34.8854 65.6195 35.0878 66.9176 35.1057C67.9774 35.1199 69.0302 35.0197 70.0705 34.7888C71.1879 34.5416 72.307 34.3088 73.4313 34.0975C73.8504 34.0188 74.2836 34.0046 74.7116 33.9883C75.2362 33.9687 75.6569 34.1584 75.9166 34.6491C75.9918 34.7904 76.1189 34.9069 76.2729 35.0949H76.2692Z" fill="#203136"/>
<path d="M36.0717 44.0673C36.7969 46.1425 36.7379 48.241 36.3743 50.3556C36.2724 50.9482 36.2115 51.5461 36.104 52.1371C35.8212 53.6859 36.1399 55.1451 36.6931 56.5882C37.0816 57.6016 37.4504 58.6294 37.7424 59.6732C38.1559 61.1468 38.3296 62.6597 38.0198 64.1764C37.5455 66.495 36.2311 68.119 33.9053 68.7725C32.815 69.0786 31.6923 69.0178 30.5947 68.7062C29.7549 68.4663 29.1139 67.9704 28.6915 67.2058C28.4854 66.8315 28.3083 66.4412 28.0826 65.9846C27.3843 65.8379 26.6324 65.6893 25.8857 65.5209C25.1319 65.349 24.3853 65.1521 23.6332 64.9749C22.8813 64.7957 22.1328 64.5936 21.3736 64.4592C20.6182 64.325 19.8769 64.0814 19.0567 64.0849C19.0192 64.2604 18.9833 64.4217 18.9512 64.5827C18.7416 65.6176 18.5411 66.6561 18.3137 67.6874C18.2672 67.9041 18.1508 68.119 18.0183 68.2998C17.5886 68.8781 16.9798 69.0071 16.3513 68.6668C16.1795 68.5737 16.0255 68.4503 15.8339 68.3194C15.6548 68.5093 15.5044 68.6741 15.3469 68.8317C15.107 69.0769 14.8831 69.3437 14.6164 69.555C13.9217 70.1029 13.0694 70.0437 12.4391 69.4206C12.047 69.0338 11.7677 68.5685 11.5349 68.0725C11.44 67.8718 11.3344 67.6767 11.2037 67.4206C11.0533 67.5334 10.9387 67.6051 10.842 67.6947C10.5072 68.0079 10.2028 68.3571 9.84471 68.6383C8.60925 69.605 7.21088 69.8647 5.71403 69.4368C4.38191 69.0571 3.76242 68.0742 3.94505 66.6954C4.0113 66.1924 4.16884 65.6999 4.28523 65.1987C4.08828 65.0268 3.91281 65.1933 3.74272 65.2613C3.22526 65.4709 2.69707 65.5389 2.14381 65.4799C0.963875 65.3527 0.0113314 64.6561 0.11518 63.009C0.156361 62.3446 0.358679 61.718 0.645158 61.1182C1.00684 60.3626 1.48132 59.6857 2.03636 59.0626C3.11067 57.8542 4.35865 56.8514 5.74627 56.0295C6.20822 55.7556 6.72209 55.5729 7.26639 55.3241C7.2091 55.1432 7.16434 54.9213 7.07302 54.7225C5.91278 52.2051 5.83938 49.5695 6.27984 46.8981C6.6075 44.9142 7.18403 42.9985 8.06854 41.1828C9.40781 38.4326 11.3487 36.2357 14.0022 34.687C15.8697 33.5965 17.8267 32.7389 19.9788 32.3951C21.8016 32.1033 23.6226 32.1175 25.4541 32.3592C27.7819 32.6672 29.8535 33.5858 31.7657 34.8983C33.5741 36.139 34.9527 37.763 35.916 39.7326C36.2186 40.3502 36.437 40.9967 36.5427 41.686C36.6554 42.4235 36.575 43.1094 36.2078 43.7612C36.1667 43.8346 36.1399 43.9169 36.0717 44.0744V44.0673ZM14.3943 50.8872C14.5036 50.6115 14.5734 50.4575 14.6289 50.2964C15.295 48.3644 16.5393 46.95 18.3513 45.9939C19.8536 45.2008 21.4328 44.6242 23.0549 44.1442C24.0146 43.8596 24.9815 43.591 25.927 43.2669C26.4927 43.0735 27.0442 42.8193 27.567 42.5311C28.0755 42.2518 28.4891 41.8561 28.6377 41.249C28.6698 41.1165 28.7469 40.9858 28.8311 40.8766C28.9099 40.7729 29.0585 40.7674 29.1283 40.8695C29.2715 41.079 29.3825 41.3099 29.5026 41.5337C30.3315 43.07 31.5383 44.1084 33.2661 44.5489C34.2418 44.7978 34.9491 44.4506 35.5453 43.7575C35.9554 43.2813 36.079 42.6957 36.0361 42.0691C35.9823 41.283 35.7316 40.5561 35.3807 39.8614C34.3906 37.9027 32.9796 36.3181 31.1372 35.1167C29.3127 33.9278 27.3503 33.1203 25.1713 32.8571C23.5115 32.6566 21.8589 32.6493 20.2062 32.8946C18.0774 33.2115 16.1436 34.0514 14.2994 35.1238C11.7748 36.5921 9.90199 38.6654 8.61642 41.2778C7.59584 43.3511 6.97633 45.5444 6.69344 47.8345C6.41592 50.0905 6.57528 52.2892 7.52423 54.3913C7.67642 54.7297 7.80534 55.0788 7.94498 55.4243C7.98797 55.53 8.03451 55.6356 8.06495 55.7448C8.1133 55.9151 7.945 56.1172 7.77132 56.0601C7.22521 55.8809 6.75072 56.0653 6.29774 56.325C4.58961 57.3009 3.08203 58.5148 1.88599 60.0904C1.41687 60.71 1.04802 61.3866 0.824207 62.1369C0.666644 62.6651 0.595025 63.1986 0.702456 63.7467C0.799142 64.2337 1.07309 64.5773 1.53145 64.7636C2.10799 64.9981 2.69886 65.0358 3.2933 64.8316C3.56367 64.7384 3.82508 64.6203 4.09543 64.529C4.28344 64.4665 4.47681 64.4108 4.67376 64.3858C4.88682 64.3589 5.07662 64.5488 5.03544 64.7601C4.9871 65.0089 4.91191 65.2596 4.81342 65.4924C4.58603 66.0259 4.44815 66.5737 4.44995 67.1574C4.45353 67.9274 4.8188 68.4718 5.50814 68.7796C5.8161 68.9175 6.15808 69.0178 6.4929 69.0501C7.75161 69.1753 8.87783 68.8567 9.80174 67.9525C10.047 67.7126 10.287 67.4654 10.5358 67.2291C10.6594 67.111 10.7865 66.9909 10.928 66.8997C11.1607 66.7492 11.4561 66.803 11.6119 67.0339C11.739 67.2218 11.8178 67.4404 11.9306 67.639C12.1562 68.0366 12.3514 68.4574 12.6289 68.8154C13.1768 69.5246 13.8142 69.5656 14.4642 68.9713C14.6951 68.76 14.8939 68.5111 15.1034 68.2765C15.2359 68.1261 15.3505 67.9614 15.4901 67.8182C15.6781 67.6249 15.8912 67.6086 16.1043 67.768C16.2869 67.9041 16.448 68.0725 16.6396 68.1959C16.9082 68.3678 17.1857 68.3284 17.4328 68.1244C17.7193 67.8897 17.8428 67.5603 17.8607 67.2166C17.8822 66.8101 17.9861 66.4306 18.1042 66.0492C18.4623 64.9033 18.5017 63.7483 18.2314 62.5755C17.97 61.4458 17.542 60.3911 16.8724 59.4475C16.0111 58.2372 14.9082 57.3009 13.5761 56.6294C13.0407 56.359 12.5197 56.0547 12.0148 55.7306C11.705 55.5318 11.4114 55.292 11.1553 55.025C10.398 54.2338 10.2816 53.3135 10.7955 52.343C11.1858 51.6053 11.7784 51.0914 12.5448 50.7655C13.1499 50.5077 13.7444 50.3483 14.389 50.882L14.3943 50.8872ZM29.0226 41.9098C28.2241 42.9858 27.0979 43.4586 25.9197 43.8452C25.7836 43.89 25.6494 43.9402 25.5133 43.9796C24.7452 44.2088 23.9789 44.4362 23.2108 44.6617C21.5311 45.1524 19.8984 45.7522 18.3621 46.6045C16.8706 47.4316 15.8321 48.6384 15.2287 50.223C15.0658 50.6509 14.944 51.0914 14.8008 51.5265C14.7417 51.7091 14.7614 51.9723 14.5215 52.01C14.2135 52.0583 14.1992 51.7485 14.0882 51.5641C14.0434 51.4907 14.0147 51.4084 13.9682 51.3367C13.8321 51.1237 13.6262 51.0126 13.3827 51.0699C12.3514 51.3171 11.5493 51.8577 11.1535 52.8873C10.9297 53.471 10.9924 54.0295 11.4114 54.4934C11.6961 54.8066 12.0273 55.0949 12.3836 55.3259C12.9351 55.6823 13.5241 55.9795 14.0989 56.3C16.6772 57.7395 18.2815 59.8827 18.8097 62.8047C18.8456 62.9981 18.9046 63.188 18.9564 63.392C19.1427 63.4493 19.3022 63.5102 19.4649 63.5443C20.584 63.7788 21.7085 63.9936 22.824 64.2426C23.9395 64.4915 25.0442 64.8011 26.1633 65.0304C27.0585 65.2129 27.9644 65.3527 28.874 65.4457C29.7728 65.537 30.5554 65.2023 31.2358 64.615C31.9018 64.042 32.3923 63.3509 32.686 62.5236C32.9456 61.7932 33.1192 61.0411 33.2196 60.273C33.3574 59.2237 33.4774 58.1709 33.6314 57.1254C33.977 54.7762 34.3673 52.4343 34.6805 50.0815C34.8722 48.6366 34.9779 47.1774 34.9241 45.7145C34.917 45.5015 34.8668 45.2885 34.8293 45.0216C33.9609 45.335 33.1963 45.1183 32.4299 44.8515C31.2214 44.4326 30.2957 43.6537 29.5509 42.6367C29.3844 42.4094 29.2179 42.1801 29.0208 41.908L29.0226 41.9098ZM35.5472 44.6886C35.5222 44.7065 35.488 44.719 35.4863 44.7352C35.4684 44.9034 35.4397 45.0753 35.447 45.2437C35.5562 47.8882 35.2106 50.4969 34.8239 53.1022C34.5034 55.2526 34.1918 57.4028 33.8767 59.5532C33.7227 60.6008 33.5794 61.6482 33.2196 62.6526C32.9152 63.5049 32.4442 64.2426 31.7818 64.8585C31.044 65.5443 30.2026 65.9846 29.1712 65.9936C29.062 65.9936 28.951 66.0223 28.7613 66.0492C29.105 67.0447 29.6099 67.8272 30.6341 68.1529C31.6671 68.4807 32.7218 68.5182 33.7692 68.2586C35.6993 67.7824 37.232 66.0079 37.5167 63.9955C37.7155 62.5845 37.6188 61.1916 37.2302 59.8308C36.9401 58.8155 36.6 57.811 36.2115 56.8281C35.5901 55.2507 35.275 53.6517 35.5901 51.9617C35.6528 51.6249 35.6993 51.2848 35.7441 50.9445C35.8569 50.094 35.9804 49.2455 36.0682 48.3913C36.1882 47.2418 36.0575 46.1067 35.7906 44.9859C35.7585 44.8534 35.7406 44.6958 35.5507 44.6921L35.5472 44.6886Z" fill="#203136"/>
<path d="M73.4439 22.5351C73.3918 22.895 73.3203 23.2601 73.2899 23.629C73.2326 24.3292 73.0052 24.9702 72.6578 25.5716C71.664 27.2942 70.1492 28.3578 68.2908 28.972C67.9667 29.0793 67.596 29.1599 67.3276 28.8555C67.0285 28.517 67.1842 28.1501 67.3651 27.8187C67.5566 27.4678 67.7858 27.1366 67.9936 26.7964C68.3499 26.211 68.7313 25.6362 69.0535 25.0327C69.3758 24.4276 69.5853 23.7813 69.519 23.0113C69.3006 23.0221 69.1072 23.0113 68.9209 23.0417C67.6212 23.246 66.3283 23.4965 65.0232 23.6559C63.6838 23.8188 62.3409 23.7651 61.0035 23.5431C58.8335 23.1832 56.8029 22.4401 54.898 21.3552C52.6167 20.0569 50.8925 18.2379 49.813 15.8297C48.3322 12.5316 48.5845 9.37854 50.6132 6.38125C51.845 4.56391 53.4905 3.21388 55.4296 2.2094C57.6911 1.03664 60.0868 0.341932 62.6329 0.123492C67.7179 -0.309808 72.3982 0.88445 76.715 3.55766C78.4159 4.61225 79.8376 5.96766 80.8923 7.68294C81.6371 8.89509 82.1295 10.1932 82.2226 11.6256C82.2745 12.4349 82.1707 13.2191 81.9236 13.9944C81.3488 15.8064 80.3425 17.3516 79.0319 18.7053C77.8681 19.9084 76.5396 20.8913 75.0427 21.6451C74.5073 21.9137 73.9594 22.1625 73.442 22.5368L73.4439 22.5351ZM67.7804 28.4526C67.9075 28.4706 67.9686 28.4974 68.0167 28.4812C69.5655 28.0067 70.8763 27.1814 71.8359 25.8546C72.3642 25.1242 72.7276 24.3238 72.7706 23.4035C72.7795 23.2047 72.8333 23.0078 72.8458 22.8073C72.8744 22.3274 73.1286 22.0177 73.5477 21.8099C73.9576 21.6076 74.3552 21.3767 74.7651 21.1743C76.1403 20.4975 77.3615 19.6076 78.4447 18.5315C79.784 17.203 80.8153 15.6775 81.3989 13.8619C81.7321 12.827 81.7856 11.7939 81.5601 10.7321C81.1734 8.90764 80.2298 7.40004 78.9657 6.06792C78.0131 5.06344 76.9138 4.24163 75.7106 3.56302C71.7178 1.31059 67.4509 0.275684 62.8567 0.635571C60.2783 0.837897 57.8522 1.53261 55.5711 2.73403C53.6087 3.76714 51.9849 5.18162 50.7977 7.0706C49.8935 8.51015 49.4029 10.0804 49.4083 11.7814C49.4137 13.1153 49.7557 14.3812 50.3017 15.5969C51.3491 17.9245 53.0233 19.6739 55.2345 20.9182C57.0446 21.937 58.9712 22.646 61.0231 22.988C62.5004 23.2351 63.9774 23.2906 65.4635 23.0311C66.6472 22.8233 67.8377 22.6604 69.023 22.4689C69.365 22.4132 69.6999 22.3507 70.006 22.5781C70.1798 22.8429 70.1261 23.1295 70.0938 23.4125C70.0025 24.1896 69.7697 24.9235 69.365 25.595C68.9657 26.2558 68.5379 26.9003 68.1368 27.5593C67.9792 27.8206 67.741 28.055 67.7787 28.4456L67.7804 28.4526Z" fill="#203136"/>
<path d="M14.1225 11.5562C14.1583 9.11575 14.2872 7.2035 14.8315 5.34676C15.0249 4.68966 15.2684 4.04508 15.5352 3.41302C15.7017 3.02091 15.9381 2.65566 16.1762 2.29935C16.8602 1.27519 17.8324 0.718343 19.057 0.689695C20.0848 0.664628 21.1197 0.691485 22.1456 0.764896C24.3533 0.922459 26.4893 1.48467 28.6362 1.98064C30.5342 2.4193 32.4231 2.892 34.2369 3.60998C35.1124 3.95734 35.9664 4.36736 36.8062 4.79529C37.5241 5.16054 38.142 5.67621 38.713 6.24558C39.9288 7.45775 40.525 8.92594 40.5985 10.6323C40.6486 11.7907 40.4535 12.9152 40.1688 14.0271C39.8483 15.2732 39.4812 16.5087 39.1696 17.7584C38.962 18.5892 38.7901 19.4326 38.6469 20.2776C38.3335 22.1236 38.8134 23.737 40.1347 25.0815C40.4714 25.4235 40.7363 25.8461 41.2431 25.9982C41.3308 26.0251 41.4061 26.2256 41.4132 26.3492C41.4186 26.4315 41.3094 26.564 41.2198 26.5999C40.0828 27.06 38.9333 27.3609 37.7248 26.8435C37.252 26.6411 36.7597 26.4798 36.2959 26.2579C34.5448 25.427 32.6988 24.9454 30.7795 24.7252C28.6183 24.4763 26.4608 24.2025 24.3373 23.7047C22.4232 23.257 20.6256 22.5247 18.9622 21.4915C16.5218 19.9769 15.0392 17.7799 14.4734 14.9653C14.212 13.669 14.0867 12.3601 14.1207 11.5544L14.1225 11.5562ZM40.3693 26.2489C40.3299 26.1593 40.3174 26.0985 40.2816 26.0574C40.0757 25.8192 39.8679 25.581 39.6514 25.3537C38.2637 23.8997 37.8 22.1613 38.1062 20.2078C38.2439 19.334 38.4356 18.4657 38.6505 17.6062C38.962 16.3583 39.329 15.1228 39.6477 13.8749C39.9038 12.8758 40.0882 11.8642 40.0667 10.8221C40.0309 9.00294 39.3488 7.48997 37.9772 6.28678C37.3918 5.7729 36.7614 5.32707 36.0596 4.99583C35.2843 4.63056 34.5037 4.26172 33.6943 3.98062C30.2512 2.78457 26.7079 1.9896 23.1161 1.40768C21.8753 1.20715 20.6112 1.15701 19.3471 1.19282C18.0311 1.23042 17.0249 1.78369 16.4 2.94035C16.0616 3.56701 15.7697 4.22592 15.5298 4.89555C14.9945 6.39062 14.8172 7.9555 14.7152 9.53114C14.5988 11.3091 14.6417 13.0781 14.9927 14.8328C15.4815 17.2696 16.7008 19.2428 18.7294 20.693C19.17 21.0083 19.6407 21.2892 20.1225 21.5399C21.7553 22.3922 23.4706 22.9974 25.2825 23.3662C27.1662 23.7476 29.0694 23.9679 30.971 24.2077C32.4535 24.3957 33.9075 24.6895 35.2968 25.2516C35.8268 25.4664 36.3407 25.7225 36.8744 25.9267C37.4616 26.1506 38.0543 26.3671 38.6594 26.5282C39.2557 26.6876 39.8304 26.5551 40.3658 26.2489H40.3693Z" fill="#203136"/>
<path d="M14.3952 50.887C13.7524 50.3516 13.1561 50.5129 12.5509 50.7707C11.7846 51.0966 11.1902 51.6103 10.8016 52.348C10.2896 53.3185 10.4059 54.2388 11.1615 55.0302C11.4158 55.297 11.7112 55.5368 12.021 55.7356C12.5259 56.0597 13.0469 56.3623 13.5823 56.6344C14.9126 57.3059 16.0173 58.2424 16.8786 59.4527C17.55 60.3963 17.9779 61.451 18.2375 62.5807C18.5097 63.7535 18.4685 64.9083 18.1104 66.0542C17.9922 66.4356 17.8866 66.8152 17.8669 67.2216C17.849 67.5655 17.7255 67.8949 17.439 68.1294C17.1901 68.3336 16.9144 68.373 16.6458 68.2011C16.4542 68.0794 16.2949 67.9093 16.1105 67.7732C15.8974 67.6155 15.6843 67.6299 15.4963 67.8232C15.3566 67.9664 15.2421 68.1331 15.1096 68.2817C14.9001 68.518 14.7013 68.765 14.4703 68.9763C13.8204 69.5725 13.183 69.5296 12.6351 68.8206C12.3576 68.4624 12.1624 68.0416 11.9368 67.6442C11.824 67.4454 11.7452 67.227 11.6181 67.0391C11.4623 66.8082 11.1669 66.7544 10.9341 66.9047C10.7909 66.9961 10.6656 67.116 10.542 67.2341C10.2931 67.4723 10.0532 67.7176 9.80791 67.9576C8.88403 68.8617 7.75779 69.1786 6.49908 69.0551C6.16426 69.0211 5.82228 68.9208 5.51432 68.7848C4.82498 68.4768 4.45973 67.9324 4.45614 67.1626C4.45256 66.5789 4.59221 66.0311 4.8196 65.4974C4.91986 65.2629 4.9933 65.0139 5.04162 64.7651C5.08282 64.5556 4.89302 64.3641 4.67996 64.3908C4.48478 64.416 4.28962 64.4715 4.10163 64.5342C3.83126 64.6255 3.56985 64.7436 3.29948 64.8368C2.70504 65.0408 2.11598 65.005 1.53764 64.7686C1.07928 64.5825 0.80533 64.2387 0.708644 63.7517C0.599424 63.2038 0.671042 62.6703 0.830396 62.142C1.05421 61.3918 1.42305 60.715 1.89215 60.0954C3.08642 58.52 4.59579 57.3059 6.30392 56.3302C6.75692 56.0705 7.23139 55.8861 7.7775 56.0651C7.95118 56.1224 8.11768 55.9201 8.07113 55.75C8.0407 55.6408 7.99415 55.5352 7.95118 55.4295C7.81151 55.084 7.6826 54.7347 7.53041 54.3963C6.58146 52.2943 6.4221 50.0957 6.69962 47.8396C6.98251 45.5496 7.60204 43.3563 8.62262 41.2828C9.90819 38.6706 11.781 36.5971 14.3056 35.129C16.1498 34.0564 18.0836 33.2167 20.2125 32.8998C21.865 32.6526 23.5178 32.6616 25.1774 32.8621C27.3566 33.1255 29.3188 33.9328 31.1435 35.1217C32.9859 36.3214 34.3967 37.906 35.3868 39.8666C35.7377 40.5613 35.9884 41.2863 36.0422 42.0743C36.0851 42.7009 35.9615 43.2865 35.5516 43.7627C34.9535 44.4556 34.2481 44.803 33.2722 44.5541C31.5444 44.1136 30.3376 43.0752 29.5086 41.5389C29.3888 41.3151 29.2777 41.0823 29.1346 40.8745C29.0646 40.7743 28.916 40.7797 28.8372 40.8818C28.753 40.991 28.6761 41.1217 28.6438 41.2542C28.4952 41.8594 28.0816 42.2551 27.5731 42.5363C27.0486 42.8245 26.4971 43.0787 25.933 43.2721C24.9859 43.5962 24.0208 43.8648 23.0612 44.1494C21.4389 44.631 19.8597 45.2076 18.3575 45.9989C16.5455 46.9534 15.3011 48.3677 14.6351 50.3016C14.5796 50.4608 14.5097 50.6167 14.4005 50.8924L14.3952 50.887Z" fill="#203136"/>
<path d="M29.0229 41.9083C29.2199 42.1805 29.3864 42.4097 29.5529 42.6371C30.2977 43.654 31.2234 44.4328 32.432 44.8519C33.1983 45.1168 33.9629 45.3335 34.8313 45.0219C34.8688 45.2887 34.9171 45.5018 34.9261 45.7148C34.9798 47.1777 34.8742 48.6369 34.6827 50.0819C34.3693 52.4346 33.9789 54.7766 33.6334 57.1256C33.4794 58.1732 33.3594 59.2241 33.2216 60.2733C33.1214 61.0415 32.9476 61.7936 32.6879 62.524C32.3943 63.353 31.9038 64.0423 31.2377 64.6152C30.5573 65.2026 29.7748 65.5373 28.876 65.4461C27.9683 65.3529 27.0605 65.2133 26.1653 65.0307C25.0445 64.8015 23.9415 64.4918 22.826 64.2428C21.7105 63.994 20.5862 63.7791 19.4671 63.5445C19.3023 63.5105 19.1447 63.4497 18.9586 63.3923C18.9067 63.1883 18.8475 62.9985 18.8117 62.8051C18.2818 59.883 16.6793 57.738 14.101 56.3003C13.5262 55.9798 12.9371 55.6825 12.3857 55.3263C12.0294 55.0971 11.6999 54.8089 11.4134 54.4936C10.9927 54.0299 10.93 53.4712 11.1556 52.8875C11.5513 51.858 12.3535 51.3173 13.3848 51.0703C13.6283 51.0111 13.8324 51.1222 13.9703 51.337C14.0168 51.4085 14.0472 51.491 14.0902 51.5644C14.1994 51.7488 14.2155 52.0604 14.5235 52.0102C14.7634 51.9726 14.7437 51.7094 14.8028 51.5269C14.9461 51.0918 15.0678 50.6494 15.2308 50.2234C15.8341 48.6388 16.8726 47.432 18.3641 46.6047C19.9003 45.7525 21.5333 45.1526 23.2127 44.662C23.9809 44.4365 24.749 44.209 25.5153 43.98C25.6532 43.9387 25.7858 43.8885 25.9218 43.8456C27.0999 43.4588 28.2261 42.988 29.0246 41.91L29.0229 41.9083ZM31.3075 49.7399C31.0175 49.6307 30.9208 49.6109 30.8599 49.7076C30.7132 49.9458 30.5198 50.1857 30.4696 50.4489C30.3694 50.9788 30.3246 51.5232 30.305 52.0639C30.2835 52.6637 30.3281 53.2636 30.3246 53.8634C30.3191 54.8285 30.1651 54.9896 29.1949 55.0971C28.8833 55.131 28.5682 55.149 28.2602 55.2079C28.1796 55.2242 28.0758 55.3638 28.0739 55.4497C28.0722 55.5195 28.2065 55.6593 28.2763 55.6574C28.7883 55.6378 29.3022 55.6072 29.8107 55.5447C30.4033 55.473 30.7132 55.0808 30.8134 54.5259C30.8689 54.2197 30.8689 53.9009 30.8672 53.5877C30.8672 52.9879 30.8241 52.3863 30.8403 51.7882C30.8564 51.1328 30.8976 50.4722 31.304 49.9064C31.3309 49.8687 31.3075 49.7972 31.3075 49.7399ZM21.4635 48.585C21.6139 48.5223 21.7194 48.4883 21.818 48.4364C22.3246 48.1697 22.8243 47.894 23.3328 47.6308C23.7642 47.407 24.1922 47.1688 24.7007 47.1742C24.7292 47.1742 24.7686 47.1742 24.783 47.1598C24.8474 47.0775 24.9549 46.9879 24.9514 46.9056C24.9478 46.816 24.8422 46.6638 24.7723 46.6584C24.5521 46.6459 24.3014 46.6299 24.1115 46.7193C23.2325 47.1294 22.3694 47.5716 21.5064 48.0157C21.4206 48.0605 21.3453 48.1893 21.3328 48.2878C21.322 48.372 21.4079 48.4687 21.4635 48.5832V48.585ZM30.1885 58.8267C29.9432 58.8715 29.6675 58.918 29.3918 58.9717C29.168 59.0163 28.9477 59.0809 28.722 59.113C28.1383 59.1972 27.5834 59.1507 27.1053 58.7444C27.0265 58.6781 26.9084 58.6566 26.8098 58.6154C26.6737 58.9269 26.6631 59.0146 26.7365 59.1024C26.9478 59.3495 27.2235 59.5017 27.5296 59.5875C28.4588 59.8507 29.338 59.5875 30.2029 59.2814C30.4033 59.2097 30.3837 59.0163 30.1903 58.8267H30.1885ZM33.8626 47.5072C33.8178 47.473 33.7766 47.4195 33.7266 47.4086C32.7794 47.1884 31.8339 46.9664 30.8833 46.7622C30.6934 46.7211 30.4821 46.7372 30.2887 46.773C30.2045 46.7891 30.0918 46.92 30.0882 47.0023C30.0847 47.0775 30.1993 47.2136 30.2816 47.2315C31.2879 47.4426 32.2976 47.6396 33.3058 47.8367C33.4167 47.8581 33.5349 47.8921 33.6424 47.8723C33.8376 47.8384 33.9414 47.7202 33.8626 47.5072ZM12.733 53.7075C12.7724 53.8007 12.844 54.0155 12.9533 54.2072C13.0231 54.3289 13.1717 54.4221 13.3114 54.3146C13.3812 54.2608 13.4456 54.0943 13.4116 54.028C13.2559 53.7238 13.2559 53.4337 13.3848 53.1238C13.4045 53.0773 13.3275 52.9377 13.2773 52.9252C13.1789 52.9019 13.0428 52.9054 12.964 52.9592C12.7509 53.1024 12.7456 53.3441 12.733 53.7075ZM24.3622 50.755C24.3693 50.5725 24.1922 50.3505 24.0238 50.3272C23.6927 50.2842 23.3953 50.5331 23.3972 50.85C23.3972 51.0541 23.5655 51.2278 23.7679 51.2368C24.0597 51.2493 24.3533 51.0111 24.3622 50.7533V50.755ZM32.5214 51.201C32.8044 51.2206 33.0353 51.0451 33.0587 50.7927C33.0801 50.5545 32.9047 50.3522 32.6702 50.3451C32.3926 50.3378 32.1832 50.5312 32.1795 50.7981C32.1778 51.013 32.3245 51.1866 32.5214 51.1991V51.201Z" fill="#E8B48E"/>
<path d="M35.5494 44.6863C35.739 44.6917 35.7588 44.8476 35.7893 44.9799C36.056 46.1008 36.1867 47.236 36.0668 48.3855C35.9772 49.2378 35.8537 50.0882 35.7426 50.9387C35.698 51.279 35.6532 51.6191 35.5888 51.9556C35.2735 53.6459 35.5888 55.2466 36.21 56.8222C36.5968 57.8052 36.9388 58.8097 37.2288 59.825C37.6173 61.1858 37.714 62.5787 37.5152 63.9897C37.2305 66.004 35.698 67.7766 33.7678 68.2528C32.7203 68.5124 31.6658 68.4766 30.6326 68.1471C29.6085 67.8212 29.1036 67.0389 28.7598 66.0434C28.9496 66.0165 29.0588 65.9896 29.1699 65.9878C30.201 65.9788 31.0444 65.5384 31.7802 64.8526C32.4427 64.2366 32.9137 63.4972 33.2181 62.6468C33.578 61.6423 33.723 60.5948 33.8752 59.5474C34.1903 57.397 34.5018 55.2466 34.8223 53.0962C35.211 50.4911 35.5565 47.8824 35.4454 45.2379C35.4383 45.0695 35.4688 44.8995 35.4848 44.7292C35.4848 44.7132 35.5206 44.7007 35.5457 44.6827L35.5494 44.6863Z" fill="#203136"/>
<path d="M67.7804 28.4523C67.7427 28.062 67.9809 27.8275 68.1385 27.566C68.5396 26.9054 68.9674 26.2625 69.3667 25.6019C69.7714 24.9321 70.0042 24.1982 70.0955 23.4192C70.1278 23.1364 70.1813 22.8499 70.0077 22.5848C69.7016 22.3574 69.3667 22.4202 69.0247 22.4756C67.8394 22.6673 66.6488 22.8303 65.4652 23.0378C63.9791 23.2975 62.502 23.242 61.0248 22.9949C58.9729 22.6511 57.0463 21.9421 55.2362 20.9251C53.025 19.6806 51.3508 17.9314 50.3034 15.6038C49.7574 14.388 49.4152 13.1221 49.41 11.7882C49.4027 10.0873 49.8951 8.517 50.7994 7.07744C51.9864 5.18847 53.6104 3.77398 55.5728 2.74087C57.8557 1.53945 60.28 0.844742 62.8584 0.642418C67.4526 0.282528 71.7195 1.31743 75.7123 3.56986C76.9155 4.24847 78.0148 5.07031 78.9674 6.07476C80.2296 7.4051 81.1751 8.91448 81.5618 10.739C81.7873 11.8008 81.7319 12.8339 81.4006 13.8688C80.8169 15.6825 79.7857 17.208 78.4464 18.5384C77.3631 19.6144 76.142 20.5061 74.7668 21.1811C74.3569 21.3834 73.9593 21.6126 73.5494 21.8168C73.1303 22.0244 72.876 22.3324 72.8475 22.814C72.835 23.0128 72.7829 23.2098 72.7723 23.4102C72.7275 24.3307 72.3659 25.1292 71.8376 25.8615C70.878 27.1882 69.5672 28.0155 68.0184 28.4881C67.9701 28.5025 67.9092 28.4756 67.7821 28.4596L67.7804 28.4523ZM65.3883 14.0156C66.0364 14.5581 66.2442 14.6244 67.0283 14.4041C67.4116 14.2967 67.775 14.1212 68.1403 13.9583C68.425 13.8312 68.6988 13.6772 68.9674 13.5411C69.646 14.2108 69.9808 14.3433 70.7167 14.2054C70.9674 14.1588 71.2164 14.0783 71.4544 13.9816C71.7982 13.8419 72.1294 13.67 72.4678 13.5178C72.6164 13.4516 72.7723 13.3979 72.9513 13.3263C73.4383 14.3522 74.3031 14.721 75.3201 14.8392C75.3488 14.8428 75.3757 14.85 75.4043 14.8535C76.2351 14.9646 77.0606 14.8983 77.8841 14.7676C78.0363 14.7425 78.1598 14.6387 78.1079 14.4757C78.0811 14.3916 77.9539 14.2824 77.8698 14.2824C77.5565 14.277 77.2396 14.2967 76.9297 14.3361C76.2672 14.4184 75.6102 14.3629 74.9656 14.2322C74.2619 14.089 73.68 13.7739 73.4616 13.0004C73.3578 12.6333 73.1465 12.5599 72.8098 12.7193C72.3963 12.9162 72.0077 13.1669 71.5869 13.3388C71.1931 13.4999 70.7777 13.6288 70.3587 13.6951C69.9325 13.7631 69.7964 13.6324 69.6139 13.1902C69.449 12.7927 69.2754 12.7246 68.8905 12.927C68.4608 13.1526 68.0489 13.4211 67.605 13.6145C67.2432 13.7721 66.8475 13.8544 66.4607 13.9476C66.3336 13.978 66.1743 13.9655 66.0777 13.7613C66.0902 13.568 66.2871 13.4802 66.4196 13.3442C66.5772 13.183 66.7328 13.0129 66.8493 12.8231C66.8906 12.7569 66.8458 12.5886 66.7831 12.5241C66.7203 12.4579 66.5538 12.4077 66.4859 12.4453C66.2906 12.5546 66.092 12.6853 65.947 12.8554C65.2558 13.67 64.3247 13.867 63.3292 13.8974C63.1895 13.901 63.0464 13.8634 62.9103 13.824C62.74 13.7739 62.5575 13.6754 62.5646 13.491C62.57 13.3066 62.6363 13.0953 62.7455 12.9485C62.8386 12.8231 63.041 12.7837 63.1824 12.6906C63.3471 12.5814 63.5155 12.4668 63.657 12.329C63.7876 12.2018 63.8287 12.0281 63.7088 11.8634C63.5942 11.7077 63.4134 11.6539 63.2504 11.7363C63.0249 11.8509 62.7921 11.9834 62.6167 12.1606C62.0919 12.6924 61.4474 12.6978 60.7849 12.6118C60.4859 12.5725 60.3408 12.3272 60.4071 12.0443C60.4984 11.6503 60.6453 11.2815 60.9693 11.0076C61.2092 10.8052 61.4509 10.6011 61.6693 10.3737C61.8054 10.2323 61.9183 10.0586 61.9971 9.88134C62.0311 9.80257 61.9882 9.6468 61.9238 9.57876C61.8592 9.51072 61.716 9.46595 61.6264 9.48744C61.4939 9.51968 61.3561 9.59666 61.2594 9.69335C61.0375 9.91537 60.8403 10.1607 60.6328 10.397C60.4448 10.6101 60.28 10.8554 60.058 11.0237C59.1413 11.713 58.1762 12.329 57.1162 12.7766C56.1905 13.1669 55.2398 13.4623 54.203 13.5071C54.1386 13.4068 54.0922 13.2976 54.0132 13.226C53.9398 13.1579 53.8181 13.0738 53.7412 13.0917C53.6516 13.1132 53.5495 13.226 53.5174 13.3209C53.4224 13.5984 53.5406 13.8276 53.8056 13.9511C54.1368 14.1069 54.4771 14.0604 54.8172 14.0048C56.307 13.7649 57.6784 13.2152 58.9586 12.4221C59.2201 12.2609 59.4493 12.0281 59.7804 11.9959C60.0151 13.004 60.2889 13.217 61.3203 13.2009C61.5137 13.1973 61.7089 13.2009 61.8969 13.2009C62.0848 14.2752 62.6435 14.4346 63.4796 14.4292C63.818 14.4256 64.1617 14.3594 64.4949 14.2877C64.801 14.2215 65.0963 14.1105 65.3918 14.021L65.3883 14.0156Z" fill="white"/>
<path d="M40.3718 26.249C39.8364 26.557 39.2617 26.6876 38.6655 26.5284C38.0603 26.3671 37.4676 26.1506 36.8804 25.9268C36.3467 25.7226 35.8328 25.4666 35.3028 25.2518C33.9135 24.6896 32.4579 24.3941 30.977 24.208C29.0755 23.9679 27.1722 23.7476 25.2885 23.3663C23.4766 22.9993 21.7596 22.3941 20.1285 21.5401C19.6486 21.2894 19.1776 21.0083 18.7354 20.6932C16.7068 19.2428 15.4857 17.2697 14.9987 14.8329C14.6478 13.08 14.6066 11.3092 14.7212 9.53123C14.8232 7.95559 15.0005 6.39071 15.5358 4.89564C15.7758 4.22601 16.0676 3.5671 16.406 2.94044C17.0309 1.78378 18.0354 1.23052 19.3531 1.19292C20.6172 1.15711 21.8796 1.20724 23.1221 1.40778C26.7139 1.98969 30.2572 2.78646 33.7003 3.98071C34.5078 4.26182 35.2885 4.63065 36.0656 4.99592C36.7674 5.32537 37.3995 5.77299 37.9832 6.28687C39.3529 7.49007 40.0369 9.00304 40.0727 10.8222C40.0942 11.8642 39.9079 12.8741 39.6537 13.875C39.335 15.1211 38.968 16.3566 38.6565 17.6063C38.4416 18.4658 38.2483 19.3341 38.1122 20.2079C37.806 22.1613 38.2697 23.9 39.6574 25.3537C39.8739 25.5813 40.0817 25.8193 40.2876 26.0574C40.3234 26.0987 40.3359 26.1596 40.3753 26.249H40.3718ZM24.8786 11.1767L24.9753 11.302C24.9199 11.4309 24.8588 11.5598 24.8069 11.6906C24.7013 11.9556 24.5706 12.2152 24.5008 12.4891C24.2664 13.4005 24.6727 13.9645 25.6055 13.9698C26.0567 13.9716 26.5097 13.8642 26.9573 13.7819C27.2887 13.721 27.6127 13.6189 27.9224 13.5401C28.3969 14.2653 28.5653 14.3512 29.3495 14.2581C29.5752 14.2313 29.7952 14.165 30.0174 14.1095C30.2912 14.0415 30.5634 13.9645 30.8589 13.8857C31.3638 14.6843 32.1409 14.9027 33.0003 14.9564C34.3038 15.0388 35.566 14.8293 36.8016 14.4318C36.9071 14.3978 37.0181 14.3494 37.0988 14.2778C37.1507 14.2313 37.1811 14.1203 37.1632 14.054C37.1471 13.9914 37.0558 13.9036 36.9967 13.9036C36.8283 13.9036 36.6582 13.9305 36.4917 13.9681C35.9063 14.097 35.3279 14.2707 34.7352 14.3566C33.9135 14.4748 33.0862 14.5177 32.2661 14.2921C31.7791 14.1579 31.4317 13.9287 31.4765 13.3539C31.4801 13.3145 31.4103 13.268 31.3405 13.1838C31.1758 13.2161 30.9824 13.2376 30.798 13.293C30.3879 13.4148 29.9851 13.5706 29.5714 13.678C29.2761 13.755 28.961 13.8302 28.6835 13.6511C28.6655 13.5938 28.6476 13.5652 28.6512 13.5401C28.7712 12.7255 28.6978 12.6592 27.9564 12.9117C27.7936 12.9672 27.6342 13.0298 27.4694 13.0764C27.0845 13.1856 26.7031 13.3235 26.3111 13.3826C25.8991 13.4452 25.405 13.6153 25.0953 13.2358C24.7748 12.8418 25.081 12.4121 25.2546 12.0361C25.4444 11.6225 25.6968 11.2358 25.9225 10.8401C26.0067 10.6915 26.1177 10.5536 26.1732 10.396C26.2055 10.3065 26.1821 10.1543 26.1213 10.0863C26.064 10.02 25.9045 9.97886 25.8241 10.0111C25.5876 10.106 25.3656 10.2421 25.14 10.3638C23.6558 11.1659 22.1785 11.9806 20.687 12.7666C20.2861 12.9779 19.8455 13.1176 19.414 13.2644C19.2958 13.3038 19.1472 13.2537 18.9628 13.2411C18.9932 13.0316 18.9843 12.8562 19.0488 12.7111C19.1007 12.5912 19.2295 12.4981 19.3371 12.4068C19.4713 12.2922 19.4965 12.1436 19.3764 12.0433C19.2852 11.9681 19.1241 11.9538 18.9932 11.9538C18.9234 11.9538 18.8429 12.0325 18.7873 12.0952C18.5313 12.3871 18.406 12.7291 18.4185 13.1176C18.4346 13.5688 18.739 13.8803 19.1901 13.8517C19.4713 13.8338 19.7578 13.7604 20.0193 13.6565C20.4705 13.4775 20.9127 13.2716 21.3424 13.046C22.3558 12.516 23.3584 11.9645 24.3666 11.4256C24.5331 11.3361 24.7067 11.2626 24.8768 11.1821L24.8786 11.1767Z" fill="white"/>
<path d="M31.3098 49.7413C31.3098 49.7967 31.3331 49.8701 31.3063 49.9078C30.8999 50.4736 30.8605 51.1342 30.8426 51.7896C30.8265 52.3894 30.8695 52.9891 30.8695 53.5891C30.8695 53.9023 30.8695 54.2211 30.8157 54.5273C30.7155 55.0805 30.4056 55.4744 29.8131 55.5461C29.3045 55.6069 28.7907 55.6374 28.2785 55.6588C28.2087 55.6624 28.0745 55.5227 28.0762 55.4511C28.0799 55.3652 28.1837 55.2237 28.2625 55.2093C28.5686 55.1503 28.8837 55.1341 29.1971 55.0985C30.1676 54.9909 30.3216 54.8298 30.3268 53.8648C30.3306 53.2648 30.2858 52.6634 30.3072 52.0653C30.3268 51.5245 30.3699 50.9802 30.4719 50.4503C30.5221 50.1871 30.7155 49.9489 30.8622 49.709C30.9232 49.6123 31.0197 49.6302 31.3098 49.7413Z" fill="#203136"/>
<path d="M21.4636 48.5867C21.4082 48.4721 21.3223 48.3754 21.3329 48.2912C21.3454 48.1928 21.4207 48.0638 21.5067 48.019C22.3697 47.5751 23.2326 47.1346 24.1118 46.7228C24.3017 46.6332 24.5522 46.6495 24.7725 46.662C24.8406 46.6655 24.9479 46.8195 24.9515 46.9089C24.9552 46.9914 24.8477 47.0808 24.7833 47.1632C24.7708 47.1794 24.7295 47.1775 24.701 47.1775C24.1923 47.1721 23.7645 47.4103 23.3329 47.6341C22.8244 47.8973 22.3249 48.173 21.8183 48.4398C21.7197 48.4919 21.6122 48.5258 21.4636 48.5886V48.5867Z" fill="#203136"/>
<path d="M30.1904 58.8286C30.3836 59.0184 30.4034 59.2118 30.2029 59.2835C29.3398 59.5896 28.4608 59.8528 27.5297 59.5896C27.2236 59.5037 26.9479 59.3514 26.7365 59.1044C26.663 59.0184 26.6738 58.9307 26.8099 58.6174C26.9085 58.6585 27.0266 58.68 27.1054 58.7462C27.5816 59.1528 28.1384 59.1993 28.7221 59.1151C28.9478 59.0828 29.1681 59.0167 29.3919 58.9736C29.6676 58.92 29.9433 58.8734 30.1886 58.8286H30.1904Z" fill="#203136"/>
<path d="M33.8643 47.5068C33.945 47.7198 33.8393 47.8398 33.6441 47.8719C33.5367 47.8899 33.4186 47.8578 33.3075 47.8363C32.2995 47.6392 31.2896 47.4422 30.2833 47.2309C30.201 47.2132 30.0864 47.0788 30.0899 47.0019C30.0937 46.9194 30.2064 46.7887 30.2906 46.7727C30.484 46.7368 30.6951 46.7208 30.8849 46.7618C31.8356 46.9642 32.7811 47.188 33.7282 47.4083C33.7785 47.4208 33.8195 47.4727 33.8643 47.5068Z" fill="#203136"/>
<path d="M12.7324 53.707C12.7432 53.3436 12.7485 53.1019 12.9634 52.9585C13.0422 52.9049 13.1783 52.9012 13.2767 52.9245C13.3287 52.937 13.4038 53.0767 13.3842 53.1233C13.2552 53.433 13.2552 53.7231 13.411 54.0275C13.445 54.0919 13.3806 54.2584 13.3108 54.3139C13.1729 54.4214 13.0243 54.3283 12.9527 54.2065C12.8416 54.015 12.7718 53.8002 12.7324 53.707Z" fill="#203136"/>
<path d="M24.3635 50.7552C24.3546 51.013 24.0609 51.2512 23.7692 51.2387C23.5668 51.2297 23.3984 51.056 23.3984 50.8519C23.3968 50.5331 23.6939 50.2861 24.0251 50.3291C24.1953 50.3505 24.3708 50.5744 24.3635 50.7569V50.7552Z" fill="#203136"/>
<path d="M32.5217 51.201C32.3247 51.1866 32.1778 51.0149 32.1797 50.8C32.1833 50.5331 32.391 50.3399 32.6703 50.347C32.9049 50.3524 33.0821 50.5548 33.0589 50.7946C33.0356 51.047 32.8047 51.2225 32.5217 51.2029V51.201Z" fill="#203136"/>
<path d="M65.3894 14.0154C65.0941 14.1049 64.7986 14.2177 64.4925 14.2822C64.1594 14.3538 63.8175 14.42 63.4772 14.4236C62.6428 14.4308 62.0843 14.2714 61.8944 13.1953C61.7065 13.1953 61.5131 13.1935 61.3178 13.1953C60.2865 13.2114 60.0126 12.9984 59.778 11.9903C59.4469 12.0226 59.2176 12.2553 58.9563 12.4165C57.6759 13.2079 56.3045 13.7593 54.8147 13.9993C54.4746 14.0548 54.1345 14.1013 53.8032 13.9456C53.5381 13.822 53.4199 13.5928 53.515 13.3153C53.5471 13.2204 53.6492 13.1076 53.7388 13.0861C53.8157 13.0682 53.9374 13.1506 54.0109 13.2204C54.0897 13.2938 54.1362 13.4012 54.2006 13.5015C55.2357 13.4567 56.188 13.1613 57.1137 12.771C58.1738 12.3234 59.1389 11.7056 60.0556 11.0181C60.2794 10.8498 60.4423 10.6027 60.6303 10.3914C60.8398 10.1569 61.0367 9.90978 61.257 9.68776C61.3537 9.59108 61.4916 9.51229 61.6239 9.48187C61.7154 9.46038 61.8586 9.50514 61.9213 9.57318C61.9857 9.64122 62.0305 9.79698 61.9947 9.87577C61.9159 10.0548 61.8013 10.2267 61.6671 10.3682C61.4503 10.5937 61.2086 10.7979 60.9669 11.002C60.6428 11.2759 60.4978 11.6448 60.4046 12.0387C60.3384 12.3216 60.4834 12.5687 60.7825 12.6063C61.4433 12.6922 62.0878 12.6868 62.6142 12.1551C62.7897 11.9778 63.0225 11.8453 63.2479 11.7307C63.4109 11.6484 63.5918 11.7021 63.7064 11.8578C63.8281 12.0208 63.787 12.1944 63.6545 12.3234C63.513 12.4612 63.3465 12.574 63.18 12.685C63.0366 12.7799 62.8362 12.8193 62.743 12.9429C62.6321 13.0897 62.5675 13.2992 62.5623 13.4854C62.5569 13.6698 62.7378 13.7701 62.9078 13.8184C63.0439 13.8578 63.1871 13.8954 63.3267 13.8918C64.3241 13.8614 65.2533 13.6627 65.9445 12.8498C66.0877 12.6815 66.2865 12.549 66.4834 12.4397C66.5514 12.4022 66.7179 12.4523 66.7806 12.5185C66.8433 12.5848 66.8881 12.7531 66.8469 12.8175C66.7306 13.0073 66.5747 13.1774 66.4172 13.3386C66.283 13.4764 66.0877 13.5624 66.0752 13.7558C66.1719 13.9617 66.3313 13.9724 66.4584 13.942C66.845 13.8507 67.2407 13.7665 67.6025 13.6089C68.0466 13.4156 68.4565 13.147 68.8881 12.9214C69.273 12.7191 69.4468 12.7889 69.6114 13.1846C69.794 13.6268 69.9301 13.7576 70.3562 13.6895C70.7753 13.6233 71.1906 13.4943 71.5845 13.3332C72.0071 13.1613 72.3955 12.9089 72.8075 12.7137C73.1441 12.5543 73.3554 12.6278 73.4592 12.9948C73.6776 13.7683 74.2596 14.0834 74.9631 14.2267C75.6077 14.3591 76.265 14.4147 76.9274 14.3305C77.239 14.2911 77.5541 14.2714 77.8673 14.2768C77.9515 14.2768 78.0786 14.386 78.1055 14.4702C78.1557 14.6331 78.0338 14.7387 77.8817 14.762C77.0598 14.8927 76.2343 14.959 75.4018 14.848C75.3733 14.8444 75.3464 14.8372 75.3176 14.8336C74.3007 14.7155 73.4358 14.3466 72.9488 13.3207C72.7681 13.3905 72.6141 13.4442 72.4655 13.5123C72.1271 13.6644 71.7958 13.8363 71.4519 13.976C71.2156 14.0727 70.9668 14.1533 70.7144 14.1998C69.9784 14.3377 69.6418 14.2052 68.965 13.5355C68.6966 13.6734 68.4225 13.8256 68.1379 13.9527C67.7726 14.1156 67.4091 14.2911 67.0259 14.3986C66.2417 14.6188 66.0358 14.5525 65.3858 14.01L65.3894 14.0154Z" fill="#203136"/>
<path d="M24.8774 11.1741C24.7074 11.2547 24.5336 11.3281 24.3671 11.4176C23.3591 11.9566 22.3563 12.5062 21.3429 13.038C20.9132 13.2636 20.471 13.4695 20.0198 13.6486C19.7583 13.7524 19.47 13.8258 19.1908 13.8438C18.7378 13.8742 18.4352 13.5608 18.4191 13.1096C18.4047 12.7211 18.5319 12.3773 18.788 12.0873C18.8415 12.0246 18.924 11.9458 18.9939 11.9458C19.1245 11.9458 19.2856 11.9584 19.3769 12.0353C19.4969 12.1356 19.4719 12.2842 19.3375 12.3988C19.2302 12.4901 19.1031 12.5832 19.0493 12.7032C18.9866 12.8464 18.9939 13.0219 18.9634 13.2332C19.146 13.2457 19.2964 13.2958 19.4146 13.2565C19.846 13.1096 20.2865 12.97 20.6877 12.7587C22.1791 11.9727 23.6581 11.1598 25.1406 10.3559C25.3661 10.2341 25.5882 10.098 25.8246 10.0031C25.905 9.97092 26.0627 10.0139 26.1217 10.0783C26.1826 10.1464 26.2059 10.2986 26.1736 10.3881C26.1182 10.5457 26.0071 10.6835 25.9229 10.8321C25.6974 11.2296 25.4449 11.6146 25.2552 12.0282C25.0814 12.406 24.7753 12.8357 25.0958 13.2278C25.4055 13.6074 25.8998 13.4355 26.3116 13.3746C26.7038 13.3155 27.0851 13.1777 27.47 13.0685C27.6347 13.0219 27.7959 12.9593 27.957 12.9037C28.6964 12.6513 28.77 12.7193 28.6518 13.5322C28.6481 13.5573 28.6679 13.5859 28.6839 13.6432C28.9615 13.8223 29.2766 13.7453 29.5721 13.6701C29.9855 13.5626 30.3867 13.4069 30.7985 13.2851C30.9829 13.2296 31.1782 13.2081 31.3411 13.1759C31.4109 13.26 31.4807 13.3066 31.4772 13.346C31.4324 13.9225 31.7815 14.1499 32.2668 14.2842C33.0868 14.5098 33.9139 14.4668 34.7358 14.3487C35.3266 14.2627 35.9068 14.0891 36.4922 13.9601C36.657 13.9243 36.8289 13.8957 36.9971 13.8957C37.0563 13.8957 37.1476 13.9834 37.1636 14.0461C37.1815 14.1123 37.1494 14.2233 37.0992 14.2699C37.0188 14.3415 36.9077 14.3898 36.802 14.4239C35.5665 14.8196 34.3043 15.029 33.0008 14.9485C32.1414 14.8948 31.3661 14.6763 30.8593 13.8778C30.564 13.9566 30.2919 14.0335 30.0178 14.1016C29.7959 14.1571 29.5756 14.2233 29.3499 14.2502C28.5658 14.3433 28.3974 14.2573 27.9231 13.5322C27.6132 13.611 27.2891 13.713 26.958 13.7739C26.5104 13.8563 26.0555 13.9637 25.6062 13.9619C24.6715 13.9566 24.2668 13.3925 24.5013 12.4812C24.573 12.2072 24.7019 11.9476 24.8076 11.6826C24.8595 11.5519 24.9185 11.423 24.9758 11.2941L24.8791 11.1687L24.8774 11.1741Z" fill="#203136"/>
</g>
<defs>
<clipPath id="clip0_1_1561">
<rect width="87.5467" height="70" fill="white"/>
</clipPath>
</defs>
</svg>
