<svg width="84" height="84" viewBox="0 0 84 84" fill="none" xmlns="http://www.w3.org/2000/svg">
<g filter="url(#filter0_d_389_75)">
<rect x="10.9415" y="11" width="62.0585" height="62.0585" rx="31.0292" fill="white" shape-rendering="crispEdges"/>
<g clip-path="url(#clip0_389_75)">
<path d="M33.9454 28.7384C33.9449 29.5562 33.6197 30.3403 33.0412 30.9182C32.4626 31.4962 31.6782 31.8206 30.8605 31.8202C30.0427 31.8198 29.2586 31.4946 28.6807 30.9161C28.1027 30.3375 27.7783 29.5531 27.7787 28.7354C27.7791 27.9176 28.1043 27.1335 28.6829 26.5556C29.2614 25.9776 30.0458 25.6532 30.8636 25.6536C31.6813 25.654 32.4654 25.9792 33.0434 26.5577C33.6213 27.1363 33.9458 27.9207 33.9454 28.7384ZM34.0379 34.1034H27.8712V53.4051H34.0379V34.1034ZM43.7812 34.1034H37.6454V53.4051H43.7195V43.2764C43.7195 37.6339 51.0733 37.1097 51.0733 43.2764V53.4051H57.1629V41.1797C57.1629 31.6676 46.2787 32.0222 43.7195 36.6934L43.7812 34.1034Z" fill="#203136"/>
</g>
</g>
<defs>
<filter id="filter0_d_389_75" x="0.489573" y="0.548045" width="82.9624" height="82.9625" filterUnits="userSpaceOnUse" color-interpolation-filters="sRGB">
<feFlood flood-opacity="0" result="BackgroundImageFix"/>
<feColorMatrix in="SourceAlpha" type="matrix" values="0 0 0 0 0 0 0 0 0 0 0 0 0 0 0 0 0 0 127 0" result="hardAlpha"/>
<feOffset/>
<feGaussianBlur stdDeviation="5.22598"/>
<feComposite in2="hardAlpha" operator="out"/>
<feColorMatrix type="matrix" values="0 0 0 0 0.058125 0 0 0 0 0.288635 0 0 0 0 0.516667 0 0 0 0.1 0"/>
<feBlend mode="normal" in2="BackgroundImageFix" result="effect1_dropShadow_389_75"/>
<feBlend mode="normal" in="SourceGraphic" in2="effect1_dropShadow_389_75" result="shape"/>
</filter>
<clipPath id="clip0_389_75">
<rect width="36.3842" height="32.7515" fill="white" transform="translate(23.7787 25.6536)"/>
</clipPath>
</defs>
</svg>
