<svg width="26" height="33" viewBox="0 0 26 33" fill="none" xmlns="http://www.w3.org/2000/svg">
<path d="M22.3036 8.60217C21.766 8.06436 21.1278 7.63773 20.4253 7.34665C19.7228 7.05558 18.9699 6.90576 18.2095 6.90576C17.4491 6.90576 16.6961 7.05558 15.9936 7.34665C15.2912 7.63773 14.6529 8.06436 14.1153 8.60217L12.9997 9.71779L11.8841 8.60217C10.7983 7.51634 9.32556 6.90632 7.78997 6.90632C6.25437 6.90632 4.78167 7.51634 3.69584 8.60217C2.61001 9.688 2 11.1607 2 12.6963C2 14.2319 2.61001 15.7046 3.69584 16.7904L4.81147 17.906L12.9997 26.0943L21.188 17.906L22.3036 16.7904C22.8414 16.2529 23.268 15.6146 23.5591 14.9121C23.8502 14.2096 24 13.4567 24 12.6963C24 11.9359 23.8502 11.1829 23.5591 10.4805C23.268 9.77798 22.8414 9.13972 22.3036 8.60217Z" stroke="#203136" stroke-width="2" stroke-linecap="round" stroke-linejoin="round"/>
</svg>
