<svg width="21" height="21" viewBox="0 0 21 21" fill="none" xmlns="http://www.w3.org/2000/svg">
<path d="M17.5 10.5834C17.5029 11.6832 17.2459 12.7683 16.75 13.75C16.162 14.9265 15.2581 15.916 14.1395 16.6078C13.021 17.2995 11.7319 17.6662 10.4167 17.6667C9.31678 17.6696 8.23176 17.4126 7.25 16.9167L2.5 18.5L4.08333 13.75C3.58744 12.7683 3.33047 11.6832 3.33333 10.5834C3.33384 9.26815 3.70051 7.97907 4.39227 6.86048C5.08402 5.7419 6.07355 4.838 7.25 4.25002C8.23176 3.75413 9.31678 3.49716 10.4167 3.50002H10.8333C12.5703 3.59585 14.2109 4.32899 15.441 5.55907C16.671 6.78915 17.4042 8.42973 17.5 10.1667V10.5834Z" stroke="#8A8987" stroke-width="2" stroke-linecap="round" stroke-linejoin="round"/>
<rect x="11.5" y="1.66666" width="7.83333" height="7.83333" rx="3.91667" fill="#425DB6"/>
<rect x="11.5" y="1.66666" width="7.83333" height="7.83333" rx="3.91667" stroke="white" stroke-width="2"/>
</svg>
