<svg width="90" height="70" viewBox="0 0 90 70" fill="none" xmlns="http://www.w3.org/2000/svg">
<g clip-path="url(#clip0_1_1474)">
<path d="M36.8276 22.782C37.0587 23.1886 37.2427 23.4909 37.4065 23.8042C40.075 28.9154 42.777 34.0087 45.3935 39.1463C46.684 41.682 47.8174 44.2952 49.0224 46.8753C50.9636 51.0331 52.9049 55.193 54.8439 59.3508C54.9022 59.4753 54.9425 59.6086 54.9785 59.6996C54.9022 59.9685 54.7047 59.962 54.5364 59.9952C51.3002 60.6375 48.044 61.1687 44.7629 61.5419C41.4708 61.9176 38.2862 62.7664 35.1287 63.7286C34.2378 63.9998 33.3513 64.2909 32.4784 64.6108C29.7472 65.613 26.9376 66.3353 24.0919 66.9242C23.6027 67.0264 23.0999 67.073 22.5994 67.1264C21.9487 67.1952 21.4976 66.9353 21.2551 66.3153C20.9971 65.6531 20.6896 65.0085 20.4405 64.3442C19.4822 61.7709 18.1874 59.3531 16.9755 56.8975C15.6201 54.1553 14.296 51.3953 12.9293 48.6575C11.1317 45.0597 9.29147 41.4841 7.49164 37.8886C6.1541 35.2154 4.83003 32.5352 3.54187 29.8398C2.74294 28.1686 2.08092 26.442 1.7196 24.6176C1.6635 24.3397 1.62535 24.0553 1.6231 23.7753C1.61861 23.253 1.88343 22.8975 2.39061 22.7443C2.69807 22.6509 3.01449 22.5709 3.33092 22.5197C7.83499 21.8064 12.2471 20.6932 16.6614 19.5753C19.4733 18.862 22.3145 18.2442 25.1623 17.682C27.2381 17.2731 29.3477 17.0553 31.4775 17.322C32.1978 17.4131 32.8846 17.5909 33.5421 17.8886C34.1121 18.1464 34.5407 18.5308 34.8167 19.1197C35.1961 19.922 35.6605 20.6841 36.0802 21.4664C36.1767 21.6465 36.2485 21.8419 36.3585 22.0976C36.1341 22.1752 35.9814 22.2397 35.8199 22.2819C29.6103 23.8974 23.4299 25.6131 17.3077 27.5242C16.5222 27.7687 15.7188 27.9597 14.9266 28.1908C13.6878 28.5508 12.4535 28.9219 11.217 29.2865C10.7008 29.4376 10.1846 29.5841 9.66848 29.7308C9.39245 29.8087 9.11193 29.8708 8.84038 29.9619C8.51274 30.0709 8.37585 30.2553 8.41176 30.4841C8.44317 30.6909 8.65412 30.7331 9.03113 30.622C16.9329 28.2842 24.8278 25.9265 32.779 23.7574C33.7462 23.4932 34.7226 23.2553 35.6966 23.0131C36.0399 22.9286 36.3922 22.8708 36.8297 22.7841L36.8276 22.782ZM36.1319 31.2908C35.9906 31.1909 35.8939 31.0842 35.7773 31.0532C35.6921 31.0309 35.5753 31.0975 35.4789 31.1352C34.6102 31.4641 33.7575 31.8397 32.871 32.1175C31.0286 32.6975 29.1749 33.2396 27.3168 33.7753C24.5654 34.5664 21.8117 35.3443 19.0536 36.1108C17.8822 36.4353 16.704 36.7375 15.5191 37.0108C14.3992 37.2686 13.2884 37.5375 12.2515 38.0397C12.063 38.1308 11.87 38.2419 11.7287 38.3886C11.6568 38.4641 11.6434 38.6776 11.7017 38.7641C11.7578 38.8464 11.9418 38.8774 12.0675 38.873C12.1618 38.8709 12.2538 38.7752 12.3503 38.7309C13.2906 38.2843 14.2668 37.9463 15.2991 37.7597C16.9239 37.4663 18.5038 37.0108 20.0702 36.502C21.0217 36.1931 21.9868 35.9198 22.9517 35.6509C25.4676 34.9486 27.9923 34.2776 30.5035 33.5553C31.8792 33.1597 33.2345 32.7042 34.5901 32.2464C35.0278 32.0997 35.4384 31.8709 35.8492 31.6553C35.9568 31.5974 36.0151 31.4465 36.1319 31.2887V31.2908ZM42.6265 45.793C42.5569 45.7064 42.5054 45.5798 42.4245 45.5552C42.2943 45.5175 42.1396 45.5198 42.005 45.5508C39.2199 46.2153 36.4168 46.8196 33.6542 47.5732C29.4083 48.7307 25.1443 49.8375 20.9433 51.1552C20.2273 51.3798 19.5316 51.6707 18.8315 51.9398C18.7036 51.9885 18.551 52.0708 18.4926 52.1797C18.45 52.262 18.5218 52.5086 18.5734 52.5175C18.7709 52.5531 18.9998 52.5731 19.1861 52.5086C19.8302 52.2931 20.4496 51.9996 21.1004 51.8086C23.6429 51.0664 26.1925 50.3553 28.7418 49.6308C30.3598 49.1709 31.9689 48.6753 33.6004 48.2641C36.2373 47.5975 38.8899 46.9909 41.5359 46.3509C41.8479 46.2754 42.1529 46.1732 42.4514 46.0552C42.53 46.0241 42.5658 45.8864 42.6288 45.7863L42.6265 45.793ZM6.35608 27.9753C6.54908 27.9243 6.72862 27.8976 6.89245 27.8309C7.38839 27.6264 7.88885 27.4308 8.36686 27.1909C9.90862 26.4174 11.5177 25.8398 13.1806 25.3776C17.5635 24.1554 21.9891 23.1063 26.4528 22.2174C27.2583 22.0575 28.0527 21.8308 28.8472 21.6152C29.0089 21.5709 29.1548 21.4509 29.2917 21.3464C29.332 21.3153 29.3521 21.202 29.3252 21.153C29.2805 21.0708 29.195 20.9553 29.1255 20.9553C28.9146 20.9553 28.7014 20.9864 28.4949 21.0353C27.972 21.1575 27.4582 21.3153 26.9329 21.4219C22.1574 22.3952 17.4109 23.4797 12.7206 24.8086C11.3382 25.1998 9.99165 25.6708 8.69452 26.2886C7.86418 26.6842 7.08767 27.2354 6.10473 27.2442C6.03741 27.2442 5.93642 27.3842 5.91847 27.4709C5.89827 27.562 5.92968 27.6997 5.99476 27.7641C6.08902 27.8598 6.23041 27.9064 6.35608 27.9776V27.9753ZM15.8467 46.7663C16.1362 46.6752 16.3719 46.5976 16.612 46.5264C18.2929 46.0241 19.9625 45.4686 21.6591 45.0309C26.9689 43.6597 32.2898 42.3352 37.6041 40.9909C38.0214 40.8863 38.4367 40.773 38.8451 40.6441C39.0471 40.5797 39.2557 40.4842 39.2199 40.2086C39.1951 40.022 38.9821 39.9397 38.6902 40.0086C38.5848 40.0331 38.4861 40.0797 38.3828 40.1064C35.7773 40.7686 33.1762 41.4398 30.5663 42.0863C26.2171 43.162 21.8478 44.1575 17.5792 45.5242C16.9666 45.7198 16.3539 45.9242 15.7525 46.153C15.6627 46.1864 15.5752 46.3841 15.5909 46.4886C15.6088 46.5953 15.757 46.6796 15.8467 46.7686V46.7663ZM45.0188 50.8041C44.9223 50.7419 44.8102 50.6087 44.7069 50.6154C44.3523 50.6353 43.9932 50.6708 43.6522 50.7619C40.5394 51.5931 37.429 52.4287 34.323 53.2819C32.3572 53.8219 30.3867 54.362 28.4387 54.9619C27.0361 55.393 25.6426 55.842 24.2197 56.2131C23.2906 56.4553 22.4042 56.8598 21.5065 57.2153C21.4346 57.2441 21.3965 57.4531 21.4124 57.5709C21.4213 57.6397 21.5716 57.7487 21.6458 57.7396C21.8904 57.7065 22.1439 57.6641 22.3639 57.5619C23.2457 57.153 24.1794 56.9087 25.1153 56.6641C25.9455 56.4465 26.7691 56.1996 27.5883 55.9463C28.4434 55.6841 29.2805 55.3596 30.1444 55.1286C34.9492 53.8398 39.6979 52.3464 44.5499 51.2352C44.6821 51.2041 44.8078 51.1286 44.9202 51.0509C44.9649 51.0196 44.9694 50.9286 45.0143 50.802L45.0188 50.8041ZM13.2323 42.462C13.313 42.462 13.3893 42.4796 13.4544 42.4597C14.5137 42.1352 15.5617 41.7731 16.6299 41.482C18.8045 40.8886 20.9814 40.2976 23.174 39.7798C24.1525 39.5487 25.1286 39.3419 26.0689 38.9843C27.2426 38.5353 28.4434 38.1953 29.6889 37.9908C30.784 37.8109 31.8769 37.6086 32.9653 37.3842C33.8406 37.202 34.7113 36.9865 35.573 36.7531C35.8379 36.6819 36.0825 36.5109 36.3159 36.3553C36.3719 36.3175 36.3899 36.1486 36.3541 36.0753C36.3181 35.9998 36.197 35.9486 36.1027 35.9175C36.0421 35.8952 35.9569 35.9087 35.8939 35.933C34.0358 36.6353 32.0676 36.8419 30.1353 37.2197C29.258 37.3909 28.3648 37.533 27.5188 37.8109C25.6471 38.4243 23.789 39.0686 21.8319 39.3776C19.6058 40.1775 17.2179 40.422 15.0253 41.333C14.765 41.4419 14.4666 41.4575 14.1905 41.5309C13.9145 41.6065 13.6385 41.6864 13.3759 41.7931C13.2525 41.8441 13.1335 41.9509 13.0617 42.0643C13.0168 42.1331 13.0437 42.2664 13.0752 42.3575C13.0931 42.4087 13.1851 42.433 13.2323 42.462ZM32.6309 27.1865C32.521 27.0887 32.4513 26.9797 32.3729 26.9709C32.2383 26.9554 32.0833 26.973 31.9621 27.0286C29.4106 28.2087 26.7063 28.9043 23.9886 29.5776C22.7026 29.8954 21.4414 30.3043 20.1713 30.6798C19.7247 30.8109 19.2938 31.002 18.8427 31.1109C16.1452 31.7687 13.6699 33.0153 11.0846 33.9686C10.7547 34.0908 10.4517 34.2952 10.1622 34.4975C10.0859 34.5532 10.0455 34.7796 10.0971 34.8619C10.151 34.9509 10.3619 35.033 10.4562 34.9952C10.8893 34.8264 11.2955 34.5953 11.7264 34.4241C14.489 33.3286 17.2269 32.1686 20.1107 31.4041C20.1802 31.3865 20.2476 31.3619 20.3148 31.3376C21.5919 30.8596 22.9025 30.4932 24.2333 30.1953C24.9334 30.0375 25.6359 29.8887 26.3203 29.6798C27.862 29.2086 29.397 28.7198 30.9253 28.2043C31.4303 28.033 31.9061 27.7687 32.3818 27.5242C32.4873 27.4709 32.5389 27.3153 32.6309 27.1819V27.1865ZM42.7276 55.9908C42.6332 55.8819 42.5658 55.7442 42.5054 55.7465C42.189 55.762 41.8657 55.7843 41.5583 55.8552C38.6656 56.5353 35.8131 57.3553 32.9855 58.2553C31.1475 58.8397 29.3275 59.4864 27.5097 60.1354C27.0071 60.3153 26.5425 60.5953 26.0645 60.8352C25.9725 60.882 25.8692 60.9441 25.8154 61.0264C25.766 61.1042 25.7368 61.2352 25.7705 61.3152C25.8042 61.3931 25.9208 61.4753 26.0083 61.4819C26.1431 61.4909 26.3002 61.4686 26.4168 61.4042C28.1852 60.442 30.1018 59.8352 32.0093 59.2419C35.1825 58.2553 38.3648 57.2798 41.6099 56.5332C41.8882 56.4685 42.1665 56.3953 42.4312 56.2886C42.5436 56.242 42.6199 56.1041 42.7297 55.9908H42.7276Z" fill="#D0E6EB"/>
<path d="M1.54065 26.7378C1.93338 27.7067 2.30368 28.6222 2.67846 29.5355C2.84004 29.9288 3.01509 30.3201 3.19238 30.7067C4.65333 33.9112 6.30281 37.0245 7.89841 40.1644C9.7521 43.8111 11.5318 47.4956 13.3518 51.1599C14.7275 53.9312 16.1099 56.7022 17.5035 59.4644C18.3383 61.1178 19.1103 62.7955 19.7792 64.5223C20.1382 65.4466 20.5444 66.3534 20.9505 67.32C20.4053 67.8044 19.8555 68.2932 19.3348 68.7556C18.9667 68.6956 18.9129 68.4267 18.8096 68.2133C16.8347 64.0733 14.8599 59.931 12.8917 55.7866C12.3262 54.5978 11.8414 53.3689 11.2176 52.2134C10.3378 50.5844 9.72294 48.84 8.88138 47.1933C8.02409 45.5156 7.2678 43.7867 6.4599 42.0822C5.66769 40.4112 4.84858 38.7511 4.06985 37.0755C3.10933 35.011 2.19146 32.9268 1.47333 30.7667C1.19281 29.9244 0.972876 29.0622 0.75968 28.2022C0.607075 27.5845 0.779876 27.0778 1.54065 26.7401V26.7378ZM19.1395 65.4244C19.0565 65.1645 19.0138 64.9555 18.9286 64.7666C18.2845 63.3422 17.6606 61.9067 16.9761 60.5C14.6085 55.6422 12.205 50.8023 9.83738 45.9421C7.81314 41.7866 5.82703 37.6133 4.00477 33.3667C3.6816 32.6155 3.36742 31.8622 3.03752 31.1133C2.95224 30.9223 2.84004 30.7378 2.70987 30.5734C2.66051 30.5134 2.50789 30.4844 2.42711 30.5111C2.34631 30.5377 2.24308 30.6578 2.24532 30.7334C2.24982 30.9044 2.29246 31.0822 2.35979 31.24C3.04875 32.8401 3.71751 34.4489 4.44463 36.0311C5.84051 39.0666 7.26107 42.0912 8.69061 45.1133C9.63317 47.1066 10.5914 49.0912 11.5654 51.0688C13.8006 55.5956 16.1278 60.0777 18.161 64.7021C18.2621 64.9288 18.3698 65.1555 18.4954 65.369C18.5448 65.451 18.6548 65.5421 18.7423 65.5489C18.8568 65.5556 18.9779 65.4823 19.1395 65.4288V65.4244Z" fill="#9CBD25"/>
<path d="M19.9961 69.2495C20.4944 68.4785 21.0846 68.1895 21.5604 67.734C22.7587 67.9628 23.9122 67.6673 25.0613 67.4095C27.687 66.8229 30.2723 66.1095 32.8105 65.2029C36.1543 64.0095 39.57 63.0496 43.0821 62.4629C44.3187 62.2562 45.5731 62.1429 46.8119 61.9472C49.2559 61.565 51.6952 61.1561 54.1369 60.7517C54.4489 60.7007 54.7541 60.5896 55.1109 60.7074V61.6628C54.7181 61.963 54.249 62.0339 53.8003 62.134C52.0161 62.5341 50.2252 62.9006 48.4457 63.3141C45.9322 63.8984 43.4322 64.5384 40.9143 65.1051C38.257 65.7029 35.5911 66.2673 32.9205 66.805C29.6169 67.4696 26.3045 68.0873 22.9967 68.7273C22.4333 68.8362 21.8722 68.9518 21.3067 69.0541C20.9589 69.1162 20.6066 69.1584 19.9984 69.2451L19.9961 69.2495Z" fill="#9CBD25"/>
<path d="M55.8965 61.4917V60.505C56.8436 59.9872 57.8332 59.6761 58.8162 59.3495C62.5909 58.0983 66.4173 57.0205 70.2481 55.9538C74.0811 54.8871 77.8423 53.5961 81.57 52.2183C83.1184 51.6472 84.5996 50.9272 86.0336 50.1139C86.2738 49.9783 86.5319 49.8761 86.8325 49.7361C86.9627 50.625 86.763 51.3739 86.3793 52.0605C86.2176 52.3495 85.899 52.585 85.6027 52.7628C85.2055 52.9983 84.7656 53.1672 84.3349 53.3427C79.8106 55.1715 75.1719 56.6183 70.3939 57.6584C66.7898 58.445 63.2194 59.3873 59.6422 60.2871C58.7398 60.5138 57.8646 60.8427 56.9782 61.1271C56.6416 61.236 56.3073 61.3517 55.8988 61.4894L55.8965 61.4917Z" fill="#9CBD25"/>
<path d="M67.1715 4.03162C67.6406 4.65161 68.1097 5.27161 68.6146 5.93828C68.4978 6.05828 68.3991 6.2005 68.2623 6.2916C63.9916 9.16939 59.8287 12.2072 55.4524 14.9316C55.1563 15.116 54.8443 15.2805 54.5346 15.4561C54.1037 14.9472 53.7155 14.4872 53.334 14.0361C53.3541 13.9849 53.3564 13.9383 53.381 13.9205C57.8447 10.6405 62.5082 7.63161 66.8438 4.17605C66.9225 4.11161 67.0369 4.08938 67.1739 4.03162H67.1715Z" fill="#ACE7F2"/>
<path d="M52.6602 13.4761C51.8702 13.0872 51.1701 12.7428 50.4004 12.365C50.499 12.185 50.5687 11.9939 50.6897 11.8406C51.5516 10.7517 52.4088 9.66055 53.2953 8.59168C54.0179 7.72055 54.9986 7.19168 56.0108 6.72945C56.61 6.45612 57.2563 6.42057 57.9048 6.58723C58.7104 6.79611 59.4422 7.16278 60.1423 7.59833C60.2523 7.66722 60.3218 7.80501 60.3824 7.87833C60.3824 7.97167 60.3892 8.00945 60.3824 8.04056C60.3733 8.07389 60.3511 8.10945 60.3242 8.12723C58.0574 9.74279 55.7908 11.3583 53.5174 12.965C53.2571 13.1494 52.9676 13.2939 52.6647 13.4739L52.6602 13.4761Z" fill="#B37140"/>
<path d="M70.1991 4.84901C69.656 4.42456 69.2005 3.89347 68.8548 3.26678C68.6956 2.9779 68.7471 2.73568 69.0298 2.51567C69.7614 1.94679 70.502 1.38457 71.2538 0.837905C71.5478 0.624571 71.7543 0.644572 72.0281 0.895682C72.5532 1.37568 73.0693 1.86902 73.4352 2.48457C72.7957 3.16234 71.137 4.38013 70.1991 4.84679V4.84901Z" fill="#FDBD48"/>
<path d="M46.4998 23.214C47.5436 23.634 48.5129 23.6563 49.4914 23.1162C49.9403 23.6474 50.1063 24.2918 50.3464 24.8718C50.1601 25.3808 49.7898 25.6274 49.3254 25.7674C48.8317 25.9141 48.3558 25.9252 47.8666 25.7206C46.684 25.2317 46.2934 24.5829 46.4998 23.214Z" fill="#B37140"/>
<path d="M48.337 19.0978C48.8307 20.1689 48.9878 21.2222 49.3335 22.2177C49.0259 22.7422 48.5255 22.8155 48.0295 22.86C47.5875 22.9001 47.1699 22.7777 46.8268 22.4933C46.2612 22.0244 46.1826 21.0868 46.6875 20.4733C47.1184 19.9511 47.6278 19.5067 48.3347 19.0956L48.337 19.0978Z" fill="#B37140"/>
<path d="M47.0213 16.9803C47.589 17.3426 47.8359 17.8026 48.0782 18.3315C47.8942 18.4892 47.7102 18.647 47.5239 18.8003C47.3332 18.9603 47.1335 19.1092 46.945 19.2737C45.9036 20.1804 45.796 20.3781 45.6209 21.7093C45.3381 21.9181 45.0644 21.7758 44.8646 21.598C44.6918 21.4448 44.5324 21.2047 44.4989 20.9847C44.4584 20.7203 44.4921 20.4048 44.6043 20.1626C44.8243 19.6848 45.0733 19.2025 45.3966 18.7892C45.8767 18.1781 46.4333 17.627 47.019 16.9803H47.0213Z" fill="#ACE7F2"/>
<path d="M44.5936 22.45C44.2638 22.5166 43.99 22.5722 43.7273 22.6232C43.5321 22.2966 43.3549 22.0032 43.1484 21.661C43.2964 21.4744 43.467 21.2589 43.6398 21.0454C43.9539 21.5099 44.2458 21.9387 44.5936 22.45Z" fill="#9CBD25"/>
<path d="M67.9797 3.30457C68.5406 4.01789 69.0209 4.62457 69.5192 5.25791C69.5012 5.4468 69.3575 5.56234 69.1803 5.42012C68.5923 4.94678 68.1794 4.32902 67.8495 3.66235C67.8203 3.60457 67.9078 3.48902 67.9797 3.30457Z" fill="#9CBD25"/>
<path d="M45.9151 15.5534C45.5986 15.5067 45.2957 15.4512 45.1543 15.1045C45.8252 14.8956 45.897 14.9401 45.9151 15.5534Z" fill="#F2EDE9"/>
<path d="M36.131 31.2916C36.0142 31.4493 35.9559 31.6004 35.8482 31.6581C35.4397 31.8737 35.0268 32.1004 34.5891 32.2494C33.2338 32.7072 31.8759 33.165 30.5026 33.5583C27.9914 34.2804 25.4666 34.9516 22.9509 35.6537C21.9859 35.9226 21.021 36.1961 20.0694 36.5048C18.5029 37.0138 16.9208 37.4693 15.2982 37.7627C14.2682 37.9493 13.292 38.2849 12.3494 38.7337C12.2529 38.7805 12.1609 38.8737 12.0666 38.876C11.9409 38.8783 11.7569 38.8493 11.7008 38.7671C11.6425 38.6804 11.6559 38.4648 11.7277 38.3916C11.8691 38.2427 12.0621 38.1338 12.2506 38.0427C13.2875 37.5381 14.3983 37.2716 15.5182 37.0138C16.7031 36.7405 17.8813 36.4404 19.0527 36.1138C21.8108 35.347 24.5645 34.5694 27.3158 33.7783C29.1718 33.2449 31.0276 32.7005 32.8702 32.1205C33.7544 31.8426 34.6095 31.4671 35.4779 31.1382C35.5767 31.1004 35.6911 31.0337 35.7764 31.0559C35.8931 31.087 35.9896 31.1938 36.131 31.2938V31.2916Z" fill="#203136"/>
<path d="M42.6246 45.7957C42.5619 45.8956 42.5258 46.0335 42.4474 46.0646C42.149 46.1823 41.8437 46.2845 41.5317 46.3601C38.8859 46.998 36.2331 47.6067 33.5962 48.2735C31.9647 48.6845 30.358 49.1824 28.7377 49.6401C26.1904 50.3624 23.639 51.0756 21.0962 51.8178C20.4454 52.0067 19.8261 52.3022 19.1819 52.5178C18.9957 52.5801 18.769 52.5623 18.5693 52.5268C18.5176 52.5178 18.4436 52.2712 18.4885 52.1889C18.5468 52.0802 18.6994 51.9979 18.8273 51.949C19.5276 51.6778 20.2233 51.389 20.9391 51.1646C25.1401 49.8467 29.4041 48.7424 33.6501 47.5823C36.4105 46.829 39.2134 46.2245 42.0008 45.5602C42.1354 45.5289 42.2903 45.5268 42.4205 45.5646C42.5012 45.589 42.5528 45.7157 42.6223 45.8024L42.6246 45.7957Z" fill="#203136"/>
<path d="M6.35473 27.9761C6.2313 27.9071 6.08767 27.8583 5.99341 27.7626C5.93058 27.6982 5.89917 27.5605 5.91712 27.4694C5.93507 27.3804 6.0383 27.2427 6.10338 27.2427C7.08632 27.2337 7.86281 26.6804 8.69315 26.2871C9.9903 25.6717 11.3368 25.1983 12.7192 24.8071C17.4073 23.4783 22.1559 22.3937 26.9316 21.4205C27.4568 21.3138 27.973 21.156 28.4936 21.0338C28.7001 20.9849 28.9133 20.9539 29.1242 20.9539C29.1937 20.9539 29.2789 21.0716 29.3239 21.1516C29.3487 21.1982 29.3307 21.3138 29.2902 21.3449C29.1534 21.4494 29.0074 21.5693 28.8459 21.6138C28.0514 21.8293 27.257 22.056 26.4513 22.216C21.9876 23.1049 17.5622 24.1537 13.1793 25.3761C11.5163 25.8404 9.90727 26.416 8.36551 27.1894C7.8875 27.4293 7.38704 27.625 6.89108 27.8294C6.72951 27.8961 6.54998 27.9228 6.35473 27.9738V27.9761Z" fill="#203136"/>
<path d="M15.846 46.7674C15.7585 46.6763 15.6082 46.5917 15.5902 46.4874C15.5722 46.3829 15.662 46.1874 15.7518 46.1518C16.3532 45.923 16.9659 45.7185 17.5785 45.5229C21.8491 44.1563 26.2187 43.1607 30.5655 42.085C33.1755 41.4407 35.7766 40.7673 38.3821 40.1051C38.4853 40.0784 38.5841 40.0318 38.6895 40.0073C38.9813 39.9407 39.1946 40.0207 39.2192 40.2073C39.255 40.4829 39.0464 40.5784 38.8444 40.6429C38.4359 40.7717 38.0207 40.8851 37.6033 40.9896C32.2869 42.334 26.9659 43.6607 21.6584 45.0296C19.9596 45.4673 18.2922 46.0229 16.6113 46.5252C16.3734 46.5963 16.1355 46.674 15.846 46.7651V46.7674Z" fill="#203136"/>
<path d="M45.0158 50.8045C44.9708 50.9313 44.9664 51.0224 44.9215 51.0535C44.8093 51.1313 44.6815 51.2067 44.5513 51.2379C39.697 52.3468 34.9483 53.8423 30.1459 55.1313C29.2819 55.3624 28.4447 55.6846 27.5898 55.949C26.7684 56.2024 25.947 56.449 25.1167 56.6667C24.1809 56.9112 23.2472 57.1557 22.3654 57.5646C22.1454 57.6668 21.8918 57.709 21.6472 57.7424C21.573 57.7512 21.4228 57.6423 21.4136 57.5734C21.398 57.4557 21.4361 57.2468 21.508 57.2179C22.4057 56.8623 23.2921 56.4578 24.2212 56.2156C25.6441 55.8468 27.0376 55.3958 28.4402 54.9646C30.3882 54.3646 32.3563 53.8245 34.3245 53.2846C37.4305 52.4312 40.5409 51.5956 43.6536 50.7646C43.9947 50.6735 44.3538 50.6379 44.7084 50.6179C44.8116 50.6112 44.9261 50.7445 45.0202 50.8068L45.0158 50.8045Z" fill="#203136"/>
<path d="M13.2314 42.4622C13.1843 42.4332 13.09 42.4065 13.0743 42.3576C13.0429 42.2665 13.016 42.1333 13.0609 42.0644C13.1327 41.9511 13.2516 41.8444 13.375 41.7932C13.6376 41.6843 13.9137 41.6043 14.1897 41.5311C14.4657 41.4555 14.7642 41.4421 15.0245 41.3333C17.2171 40.4199 19.6049 40.1756 21.8312 39.3778C23.7857 39.0688 25.6462 38.4244 27.5179 37.8111C28.3638 37.5332 29.2571 37.3911 30.1346 37.2198C32.0667 36.8422 34.0351 36.6355 35.8932 35.9332C35.9559 35.9088 36.0414 35.8977 36.1018 35.9176C36.1961 35.951 36.315 35.9999 36.3532 36.0755C36.3892 36.151 36.3712 36.32 36.315 36.3555C36.0816 36.5089 35.837 36.68 35.5723 36.7532C34.7104 36.9887 33.8397 37.2043 32.9644 37.3844C31.8783 37.6111 30.7854 37.8132 29.688 37.991C28.4448 38.1954 27.2419 38.5355 26.0682 38.9844C25.1279 39.3421 24.1516 39.5488 23.1731 39.7799C20.9805 40.2977 18.8037 40.8888 16.6291 41.4822C15.5609 41.7733 14.5128 42.1356 13.4536 42.4599C13.3885 42.48 13.3145 42.4622 13.2314 42.4622Z" fill="#203136"/>
<path d="M32.6297 27.1873C32.5377 27.3183 32.4861 27.4739 32.3806 27.5295C31.9047 27.774 31.4291 28.0385 30.9241 28.2095C29.398 28.725 27.8608 29.2162 26.3191 29.6851C25.6347 29.8939 24.9299 30.0428 24.2321 30.2006C22.9011 30.4984 21.5905 30.8651 20.3136 31.3429C20.2462 31.3672 20.179 31.3918 20.1095 31.4096C17.2256 32.174 14.4877 33.3362 11.7251 34.4296C11.2943 34.6006 10.8881 34.8317 10.4549 35.0007C10.3607 35.0362 10.152 34.9539 10.0959 34.8672C10.0442 34.7851 10.0824 34.5561 10.161 34.5028C10.4504 34.2984 10.7534 34.094 11.0833 33.9739C13.6686 33.0206 16.1439 31.774 18.8414 31.1162C19.2925 31.0051 19.7235 30.8162 20.1699 30.685C21.4402 30.3095 22.7038 29.9007 23.9872 29.5829C26.7051 28.9095 29.4092 28.214 31.9609 27.0339C32.0821 26.9785 32.2369 26.9607 32.3717 26.9762C32.4501 26.985 32.5196 27.094 32.6297 27.1918V27.1873Z" fill="#203136"/>
<path d="M42.7257 55.9914C42.6157 56.1048 42.5417 56.2427 42.4273 56.2893C42.1646 56.3959 41.8842 56.4693 41.6059 56.5338C38.3606 57.2827 35.1786 58.256 32.0052 59.2427C30.0977 59.8359 28.1812 60.4427 26.4128 61.4048C26.296 61.4693 26.1389 61.4915 26.0043 61.4827C25.9191 61.476 25.8 61.3937 25.7665 61.316C25.7328 61.2382 25.7618 61.1049 25.8112 61.027C25.8651 60.9449 25.9662 60.8826 26.0605 60.836C26.5385 60.5959 27.0029 60.3159 27.5057 60.136C29.3233 59.487 31.1412 58.8403 32.9815 58.256C35.8092 57.3559 38.6614 56.5359 41.5542 55.856C41.8617 55.7826 42.1848 55.7603 42.5012 55.7471C42.5619 55.7448 42.6293 55.8827 42.7234 55.9914H42.7257Z" fill="#203136"/>
<path d="M19.1423 65.4248C18.9807 65.4783 18.8618 65.5537 18.745 65.5449C18.6575 65.5405 18.5476 65.4494 18.4982 65.365C18.3703 65.1516 18.2625 64.9272 18.1638 64.6982C16.1306 60.0761 13.8034 55.5938 11.5682 51.0649C10.592 49.0893 9.63368 47.1027 8.69337 45.1093C7.26607 42.0872 5.84327 39.065 4.44739 36.0271C3.72027 34.445 3.05151 32.8361 2.36255 31.2361C2.29522 31.0782 2.25258 30.9005 2.24808 30.7294C2.24584 30.6538 2.34907 30.5361 2.42987 30.5071C2.51065 30.4805 2.66327 30.5071 2.71263 30.5694C2.8428 30.7317 2.955 30.9183 3.04028 31.1093C3.37018 31.8561 3.68661 32.6115 4.00753 33.3627C5.82979 37.6116 7.81814 41.7827 9.84014 45.9382C12.2055 50.7983 14.609 55.6383 16.9789 60.4961C17.6633 61.9028 18.2872 63.3383 18.9313 64.7626C19.0166 64.9515 19.0592 65.1583 19.1423 65.4204V65.4248Z" fill="#203136"/>
<path d="M67.3889 44.9896C69.8149 45.4052 72.2856 45.574 74.7476 45.5007C75.9347 45.4652 77.1848 45.4407 78.3473 45.1873C78.8836 45.0696 79.3796 44.8563 79.7993 44.5008C80.1111 44.2363 80.4163 43.8984 80.4568 43.4874C80.4456 43.4807 80.4388 43.474 80.4275 43.4674C80.4095 43.4563 80.3917 43.4452 80.3782 43.4318C80.284 43.3495 80.1897 43.2674 80.0954 43.1851C79.8126 42.9385 79.5343 42.6852 79.2763 42.4163C78.006 41.0851 76.7403 39.7519 75.4723 38.4184C74.2067 37.0852 72.941 35.7517 71.673 34.4185C70.5352 33.2208 69.577 31.8917 68.769 30.4607C68.3449 29.7074 68.0083 28.9362 67.766 28.143C67.7255 28.0118 67.6873 27.8785 67.6536 27.7451C67.5483 27.3452 67.4697 26.9407 67.4135 26.5296C67.3575 26.1186 67.3283 25.703 67.3238 25.283C67.3194 24.8607 67.3418 24.434 67.3889 24.0028C67.5034 22.9739 67.7367 21.9763 68.0553 20.9919C68.2079 20.5186 68.3449 20.0407 68.4729 19.5606C68.538 19.3207 68.603 19.0807 68.6637 18.8385C68.7241 18.5874 68.7601 18.3363 68.7669 18.0851C68.7803 17.6651 68.722 17.2474 68.5918 16.8363C68.5244 16.6229 68.4437 16.4229 68.3449 16.2363C68.2461 16.0496 68.1295 15.8763 67.9949 15.7163C67.7232 15.3963 67.3777 15.134 66.9355 14.9318C66.9154 14.974 66.8952 15.0163 66.8749 15.0585C66.7358 15.3563 66.6169 15.6429 66.4507 15.8985C66.0827 16.4629 65.6855 17.0074 65.2749 17.5429C65.2614 17.5607 65.2368 17.574 65.2054 17.5829C65.1738 17.5918 65.138 17.5985 65.0998 17.6007C65.0437 17.6029 64.983 17.5963 64.9404 17.5807C64.9271 17.5763 64.9135 17.5696 64.9023 17.5629C64.8709 17.5407 64.844 17.4963 64.8238 17.4452C64.8171 17.4274 64.8103 17.4096 64.8058 17.3918C64.7946 17.3563 64.7901 17.3207 64.7878 17.2874C64.7878 17.2718 64.7878 17.2563 64.7901 17.2429C64.7923 17.2296 64.7969 17.2163 64.8035 17.2074C64.8484 17.1318 64.8955 17.0563 64.9472 16.9829C65.0481 16.8363 65.156 16.694 65.2614 16.5518C65.3152 16.4807 65.3669 16.4096 65.4184 16.3363C65.616 16.054 65.7843 15.7718 65.9212 15.4852C66.1951 14.9118 66.343 14.3296 66.3498 13.7385C66.3498 13.5407 66.3386 13.3429 66.3072 13.1452C66.2915 13.0451 66.2735 12.9451 66.2489 12.8452C66.2017 12.6451 66.1389 12.4452 66.0581 12.2429C65.9774 12.0407 65.8786 11.8385 65.7618 11.634C65.4858 11.1496 65.138 10.7096 64.7452 10.274C64.6127 10.1296 64.4781 9.98515 64.3368 9.8407C64.0226 10.0452 63.7242 10.2318 63.4302 10.4274C61.1411 11.9585 58.852 13.494 56.5607 15.0207C56.0557 15.3585 55.5396 15.6829 55.0167 15.994C54.6644 16.2052 54.4085 16.2252 54.1506 16.0474C54.0651 15.9874 53.9799 15.9074 53.8901 15.8029C53.8273 15.7318 53.7756 15.6518 53.7241 15.5718C53.6972 15.5318 53.6724 15.4918 53.641 15.454C52.0926 13.5096 50.0549 12.6874 47.584 12.8985C47.2429 12.9274 46.9063 12.9918 46.5875 13.1029C46.5068 13.1318 46.4283 13.1607 46.352 13.1963C46.1971 13.2652 46.0468 13.3451 45.9031 13.4385C45.8312 13.4851 45.7617 13.5363 45.6922 13.5918C45.654 13.6229 45.6203 13.6563 45.5866 13.694C45.5215 13.7674 45.4632 13.854 45.3982 13.9452C45.3668 13.9896 45.3331 14.0363 45.2949 14.0829C45.4431 14.194 45.6135 14.254 45.7774 14.3074C45.8874 14.3429 45.9951 14.3763 46.0938 14.4207C46.1926 14.4651 46.2802 14.5207 46.352 14.6007C46.3878 14.6407 46.4192 14.6874 46.4461 14.7407C46.5472 14.9474 46.6348 15.1563 46.7223 15.374C46.7671 15.4829 46.8097 15.594 46.8546 15.7051C46.8995 15.8163 46.9445 15.9318 46.9915 16.0474C48.1137 16.9207 48.5311 17.454 48.9844 18.7363C49.0135 18.8207 49.0449 18.9096 49.0764 19.0029C49.2783 19.6095 49.4601 20.2251 49.6195 20.8429C49.7698 21.423 49.9517 21.9918 50.1537 22.5518C50.4587 23.3918 50.8133 24.2096 51.1926 25.0162C51.572 25.8251 51.9781 26.6207 52.3842 27.4185C52.4561 27.5608 52.546 27.6941 52.6356 27.8273C52.6649 27.8718 52.6962 27.9163 52.7255 27.9606C52.9655 28.3118 53.2236 28.643 53.4975 28.9585C53.9081 29.4341 54.3524 29.8763 54.8215 30.294C55.1335 30.574 55.4565 30.8408 55.7842 31.103C55.9481 31.2339 56.1164 31.363 56.2824 31.4896C57.335 32.2895 58.4031 33.0718 59.4646 33.8629C59.5501 33.9273 59.6374 33.9896 59.7205 34.0585C59.8551 34.1739 59.9337 34.3074 59.9405 34.4208C59.945 34.4896 59.9225 34.5496 59.8731 34.5939C59.8216 34.6407 59.7722 34.6695 59.7205 34.6829C59.6959 34.6896 59.6711 34.694 59.6465 34.694C59.5971 34.694 59.5477 34.6852 59.5007 34.6674C59.4288 34.6407 59.3593 34.5985 59.2919 34.5517C59.173 34.4718 59.0562 34.3895 58.9417 34.3051C58.8273 34.2207 58.7128 34.1341 58.5985 34.0497C58.1966 33.7495 57.7973 33.4496 57.3956 33.1496C56.9939 32.8495 56.5944 32.5496 56.1904 32.254C56.1747 32.2429 56.159 32.2297 56.141 32.2162C56.0918 32.1762 56.0401 32.1319 55.9839 32.1073C55.9076 32.0739 55.8179 32.0762 55.7079 32.1652C55.809 32.3252 55.9076 32.4851 56.0087 32.6451C56.0581 32.7252 56.1075 32.8052 56.159 32.8852C58.4794 36.4763 60.8022 40.0674 63.1226 43.6585C63.1226 43.6585 63.1249 43.6629 63.1272 43.6652C63.2148 43.8008 63.3089 43.934 63.3897 44.0717C64.7026 44.4474 66.0378 44.7562 67.3844 44.9852L67.3889 44.9896Z" fill="#B37140"/>
<path d="M88.1426 45.9086C88.0124 45.5019 87.8734 45.0953 87.6735 44.7242C87.5457 44.4887 87.4155 44.2576 87.283 44.0265C87.1508 43.7952 87.0138 43.5641 86.8769 43.3353C86.6009 42.8775 86.3181 42.4242 86.0309 41.9752C83.3648 37.8019 80.6965 33.6264 78.293 29.2975C77.6624 28.162 77.0475 27.0153 76.437 25.8687C76.1318 25.2952 75.8265 24.722 75.5192 24.1486C75.2116 23.5754 74.9042 23.0042 74.5922 22.4331C72.9338 19.402 71.2327 16.3953 69.2377 13.5642C69.0333 13.2753 68.8156 12.9931 68.5846 12.7197C68.4701 12.5842 68.3533 12.4486 68.2323 12.3175C68.1134 12.1864 67.9921 12.0553 67.8688 11.9264C67.7431 11.7953 67.6038 11.6731 67.4491 11.5753C67.3974 11.542 67.3458 11.5131 67.2897 11.4864C67.072 11.3797 66.825 11.322 66.5469 11.3486C66.6008 11.582 66.6523 11.8131 66.704 12.0419C66.8611 12.7308 67.0158 13.4153 67.1841 14.1553C67.3548 14.2819 67.6151 14.4686 67.8664 14.6664C68.883 15.4686 69.4036 16.5086 69.4306 17.802C69.4306 17.8931 69.4306 17.982 69.4306 18.0708C69.424 18.3397 69.3971 18.6042 69.3543 18.8642C69.2983 19.2131 69.2152 19.5576 69.1143 19.8997C68.9638 20.4108 68.7911 20.9154 68.6317 21.4242C68.5778 21.5931 68.5263 21.7642 68.479 21.9353C68.2592 22.7131 68.1155 23.4776 68.0528 24.233C68.0214 24.6108 68.0102 24.9842 68.0191 25.3576C68.0324 25.9153 68.0909 26.4665 68.1986 27.013C68.4455 28.2865 68.946 29.5242 69.7133 30.7309C70.362 31.7508 71.0801 32.7108 71.8701 33.6197C72.1325 33.9219 72.4043 34.2198 72.6803 34.5109C73.7641 35.6485 74.8347 36.7998 75.9276 37.9286C77.1573 39.1974 78.3939 40.4597 79.6305 41.7242C80.0434 42.1442 80.454 42.5665 80.8669 42.9886C80.8782 43.002 80.8894 43.0175 80.9006 43.0308C80.9074 43.0398 80.9142 43.0463 80.9208 43.0553C81.0062 43.1019 81.0734 43.1842 81.0846 43.3042C81.2014 44.5219 79.7764 45.442 78.7506 45.7174C78.1582 45.8775 77.5388 45.9265 76.9307 45.9798C76.2598 46.0398 75.5842 46.0797 74.911 46.1042C73.5981 46.1485 72.2807 46.1242 70.9701 46.0308C68.3894 45.8463 65.8309 45.3952 63.3422 44.6931C63.3197 44.6975 63.2951 44.6996 63.2703 44.7019C63.2635 44.7019 63.2591 44.7019 63.2546 44.7019C63.23 44.7019 63.2052 44.7019 63.1807 44.6975C63.1582 44.6952 63.1357 44.6887 63.1177 44.682C63.1132 44.682 63.1088 44.6776 63.1043 44.6776C63.0863 44.6709 63.0706 44.6618 63.0617 44.6509C62.9449 44.5174 62.8349 44.3774 62.7317 44.2353C62.6285 44.093 62.5276 43.9442 62.4311 43.7975C60.7008 41.1665 59.0199 38.5042 57.3076 35.862C56.4502 34.542 55.5862 33.2242 54.7044 31.9197C54.2623 31.2686 53.818 30.6175 53.3669 29.973C52.9156 29.3286 52.458 28.6863 51.9934 28.0486C51.7913 27.7708 51.6411 27.4576 51.4908 27.1463C51.4391 27.042 51.3897 26.9398 51.3358 26.8375C51.2033 26.5819 51.0755 26.322 50.9363 26.0374C50.8892 25.9419 50.8421 25.8464 50.7904 25.7442C50.6064 25.8708 50.4201 25.9885 50.2361 26.0931C50.0498 26.1976 49.8614 26.2887 49.6706 26.3619C49.2869 26.5086 48.8897 26.5798 48.4564 26.5353C48.1222 26.4996 47.808 26.4243 47.514 26.3063C47.2221 26.1886 46.9506 26.0286 46.7015 25.8286C46.5356 25.6953 46.3785 25.5419 46.2325 25.3731C46.1248 25.2463 46.0372 25.1154 45.97 24.9775C45.8802 24.7953 45.8219 24.602 45.7837 24.4019C45.6985 23.953 45.7163 23.4685 45.6962 22.9665C45.3708 23.0485 45.0454 23.113 44.72 23.1665C44.6122 23.1841 44.5024 23.1997 44.3945 23.2152C44.0691 23.262 43.7437 23.3019 43.4207 23.3397C42.9897 23.3909 42.5611 23.4398 42.1347 23.5063C41.9214 23.5397 41.7105 23.5775 41.4996 23.622C41.1855 23.6887 40.8711 23.7687 40.5638 23.8709C40.4629 23.9043 40.3416 23.9509 40.2541 23.9198C40.1935 23.8997 40.1261 23.8665 40.0678 23.8241C40.0095 23.7842 39.9645 23.7353 39.9512 23.6841C39.9399 23.6352 39.9577 23.5754 39.9914 23.513C40.0251 23.4509 40.0722 23.3909 40.115 23.3464C40.1307 23.3285 40.1508 23.313 40.1733 23.2998C40.2405 23.2576 40.3281 23.2353 40.4067 23.2219C40.5705 23.1976 40.7164 23.1508 40.851 23.0909C41.255 22.9085 41.5511 22.5819 41.8407 22.2085C42.3659 21.5331 42.8774 20.8486 43.3982 20.1686C43.9188 19.4908 44.4485 18.8197 45.0094 18.1708C45.382 17.7397 45.768 17.3175 46.1742 16.9108C46.2168 16.8686 46.246 16.8108 46.2753 16.7464C46.3043 16.682 46.3312 16.6064 46.3717 16.5264C46.2572 16.4797 46.1496 16.4353 46.0419 16.3931C45.8286 16.3064 45.6266 16.2219 45.427 16.142C45.3282 16.1019 45.2294 16.062 45.1285 16.0242C44.7514 15.8753 44.574 15.5419 44.3834 15.2419C44.3385 15.1731 44.2959 15.1042 44.2465 15.042C42.552 15.2597 40.0207 15.9575 38.2253 16.6686C37.9493 16.7775 37.689 16.8886 37.4533 16.9953C37.3344 17.0486 37.2221 17.1042 37.1167 17.1575C36.8609 17.2864 36.6095 17.4264 36.3761 17.5908C36.1741 17.7353 35.9924 17.9108 35.8195 18.0909C35.6289 18.2886 35.5346 18.5064 35.5414 18.7375C35.5414 18.7597 35.5458 18.7842 35.5479 18.8086C35.5615 18.9264 35.5952 19.0442 35.658 19.1686C35.8354 19.5175 36.0149 19.8663 36.1944 20.2131C36.3738 20.5619 36.5556 20.9086 36.742 21.2531C38.7281 24.9531 40.7164 28.6552 42.7114 32.3509C43.1333 33.1352 43.5485 33.9219 43.957 34.713C44.7716 36.2952 45.5592 37.8908 46.3312 39.493C47.4892 41.8975 48.6091 44.3197 49.7335 46.7398C50.4831 48.3531 51.2326 49.9663 51.9978 51.5731C52.8349 53.333 53.6384 55.1064 54.4507 56.8775C54.7222 57.4686 54.9938 58.0575 55.2676 58.6463C55.2878 58.6885 55.3058 58.733 55.3259 58.7775C55.3821 58.9108 55.4383 59.0464 55.5078 59.1775C55.5549 59.2642 55.6066 59.3509 55.6716 59.4309C55.7344 59.5109 55.8107 59.5885 55.9006 59.6576C56.1024 59.5975 56.3088 59.5508 56.5064 59.4775C56.9104 59.3287 57.3144 59.1797 57.7182 59.0375C60.1487 58.1709 62.6128 57.4042 65.0971 56.7109C65.5123 56.5952 65.9252 56.4819 66.3405 56.3708C67.4917 56.0619 68.6408 55.7397 69.7831 55.4064C73.2144 54.4064 76.6121 53.2997 79.9828 52.1108C80.5079 51.9263 81.0287 51.7309 81.5448 51.5265C82.061 51.322 82.5726 51.1065 83.0776 50.8775C83.5825 50.6487 84.0829 50.4086 84.5743 50.1552C84.8212 50.0286 85.0658 49.8975 85.3081 49.7619C85.5506 49.6263 85.7929 49.4886 86.0309 49.3463C86.1206 49.293 86.2149 49.2441 86.3069 49.1931C86.3989 49.1418 86.4909 49.0908 86.5784 49.0308C86.7063 48.9397 86.8186 48.8308 86.897 48.682C86.924 48.6331 86.9464 48.5774 86.9644 48.5174C86.9937 48.4219 87.1821 48.3241 87.3034 48.3153C87.512 48.2974 87.6578 48.2063 87.7769 48.0819C87.824 48.033 87.8689 47.9775 87.9115 47.9219C87.9317 47.893 87.9541 47.8642 87.9743 47.8352C88.0147 47.7775 88.0529 47.7198 88.0866 47.6619C88.1561 47.5441 88.2144 47.4241 88.257 47.2998C88.2996 47.1753 88.3289 47.0509 88.3424 46.922C88.349 46.8575 88.3514 46.7931 88.349 46.7264C88.3446 46.5952 88.3221 46.4598 88.2795 46.3242C88.2369 46.1886 88.1943 46.053 88.1517 45.9174L88.1426 45.9086Z" fill="#D0E6EB"/>
<path d="M88.8724 45.9159C88.7446 45.5115 88.6121 45.1003 88.4214 44.7225C88.0667 44.0248 87.6943 43.3359 87.2835 42.6693C86.5721 41.518 85.8247 40.3871 85.0956 39.247C82.1399 34.6226 79.3167 29.9226 76.7427 25.0759C75.2727 22.3093 73.7421 19.5737 72.1735 16.8626C71.3544 15.447 70.414 14.0959 69.4872 12.7448C68.6771 11.5648 67.6806 10.6181 66.1298 10.5048C65.8583 10.4848 65.6563 10.3537 65.5037 10.1403C65.34 9.91368 65.1828 9.68479 65.0079 9.43592C65.304 9.0559 65.6856 8.85369 66.0334 8.6159C67.362 7.70924 68.7084 6.82258 70.028 5.90259C71.3477 4.98035 72.6447 4.02925 73.9485 3.08481C74.1461 2.94258 74.3795 2.81146 74.3458 2.46258C74.1686 2.24481 73.9757 1.98924 73.7624 1.75369C73.3809 1.32925 73.0061 0.895914 72.5932 0.502582C71.9514 -0.10853 71.4912 -0.135197 70.7754 0.344803C70.5666 0.484803 70.3713 0.640359 70.1717 0.791469C68.1855 2.3137 66.2017 3.84257 64.2111 5.35814C63.217 6.11368 62.2048 6.84481 61.1681 7.60924C60.4993 6.89369 59.6756 6.5448 58.8542 6.19369C57.6244 5.66702 56.4238 5.72036 55.2276 6.34257C53.9664 6.99813 52.9049 7.86924 52.05 9.00257C51.2352 10.0826 50.3848 11.1359 49.5386 12.2159C48.9709 12.2159 48.3963 12.187 47.8263 12.2226C46.3968 12.3115 45.1513 12.7448 44.4488 14.1181C44.4197 14.1759 44.3434 14.2092 44.2716 14.267C44.1864 14.2915 44.0853 14.3248 43.9799 14.347C42.2967 14.7137 40.6136 15.0781 38.9933 15.667C37.5189 16.2026 36.0039 16.687 34.956 18.0004C34.0807 17.287 33.1203 16.8915 32.0857 16.7426C31.1655 16.6115 30.2276 16.5315 29.2985 16.5537C27.7927 16.5915 26.2866 16.727 24.8124 17.0537C21.6973 17.7426 18.5802 18.4226 15.4832 19.1827C12.0721 20.0204 8.67217 20.907 5.20715 21.5092C4.28928 21.6693 3.36692 21.8204 2.46027 22.0337C1.28656 22.3114 0.862414 22.9249 0.947694 24.1204C0.965647 24.3671 1.024 24.6114 1.06663 24.8559C1.12723 25.2027 1.19007 25.5471 1.25515 25.9092C1.0038 26.1449 0.770403 26.3648 0.537008 26.5825C0.175695 26.9204 -0.00383918 27.3314 0.0477769 27.8249C0.0814397 28.1427 0.110614 28.4625 0.18916 28.7715C0.37767 29.4938 0.568428 30.2158 0.804065 30.9225C1.52445 33.0849 2.42436 35.1758 3.39384 37.2381C5.60436 41.9403 7.84854 46.6248 10.0703 51.3203C12.2628 55.9514 14.4442 60.587 16.6323 65.2204C17.1327 66.2825 17.6354 67.3425 18.1448 68.4003C18.284 68.6891 18.4388 68.9691 18.6094 69.2403C18.946 69.7781 19.4487 69.998 20.0749 69.9315C20.4677 69.8891 20.8602 69.8404 21.2462 69.7626C25.8873 68.8359 30.5663 68.1048 35.1737 67.0159C37.3349 66.5048 39.5228 66.1026 41.6909 65.6136C45.048 64.8558 48.3897 64.0337 51.7513 63.3026C53.7197 62.8736 55.6473 62.3402 57.537 61.6581C58.2775 61.3915 59.0272 61.1403 59.7901 60.947C63.0554 60.1204 66.3117 59.2359 69.6038 58.5271C74.6646 57.4358 79.6107 56.0025 84.3976 54.0359C84.8936 53.8315 85.3872 53.6159 85.8741 53.3937C86.5677 53.0782 87.0277 52.5381 87.2297 51.8226C87.3846 51.2802 87.5057 50.7137 87.5372 50.1537C87.5731 49.527 87.7009 49.0182 88.2037 48.5581C88.9824 47.8493 89.1798 46.9247 88.8589 45.9181L88.8724 45.9159ZM69.0317 2.51813C69.7632 1.94925 70.5038 1.38702 71.2557 0.840359C71.5497 0.627024 71.7561 0.647025 72.0298 0.898135C72.555 1.37814 73.0712 1.87147 73.437 2.48703C72.7973 3.1648 71.1389 4.38257 70.2009 4.84925C69.6578 4.4248 69.2021 3.89368 68.8566 3.26702C68.6972 2.97814 68.7489 2.73592 69.0317 2.51591V2.51813ZM67.9814 3.30702C68.5425 4.02035 69.0226 4.62701 69.5209 5.26035C69.5029 5.44924 69.3592 5.5648 69.182 5.42258C68.594 4.94924 68.1811 4.33146 67.8512 3.66479C67.822 3.60703 67.9095 3.49146 67.9814 3.30702ZM66.8414 4.17813C66.9198 4.11369 67.0343 4.09147 67.1712 4.03368C67.6403 4.65369 68.1092 5.2737 68.6141 5.94035C68.4975 6.06036 68.3988 6.20257 68.2618 6.29368C63.9913 9.17147 59.8282 12.2092 55.4521 14.9337C55.1558 15.1181 54.844 15.2826 54.5343 15.4581C54.1033 14.9492 53.715 14.4892 53.3337 14.0381C53.3538 13.987 53.356 13.9403 53.3807 13.9226C57.8444 10.6426 62.5077 7.6337 66.8435 4.17813H66.8414ZM50.69 11.8426C51.5517 10.7537 52.4091 9.66258 53.2955 8.59369C54.0181 7.72259 54.9987 7.19369 56.0109 6.73146C56.6101 6.45814 57.2564 6.42258 57.905 6.58924C58.7107 6.79813 59.4422 7.16479 60.1424 7.60036C60.2524 7.66925 60.3219 7.80703 60.3825 7.88036C60.3825 7.97368 60.3893 8.01147 60.3825 8.04257C60.3736 8.0759 60.3511 8.11146 60.3242 8.12924C58.0576 9.7448 55.791 11.3604 53.5177 12.967C53.2574 13.1515 52.9678 13.2959 52.6649 13.4759C51.8749 13.087 51.1748 12.7426 50.4049 12.3648C50.5037 12.1848 50.5732 11.9937 50.6945 11.8404L50.69 11.8426ZM2.38845 22.7404C2.69591 22.647 3.01234 22.567 3.32877 22.5158C7.83284 21.8026 12.2449 20.6893 16.6592 19.5714C19.4712 18.8581 22.3122 18.2403 25.1602 17.6781C27.236 17.2692 29.3456 17.0515 31.4752 17.3181C32.1957 17.4092 32.8825 17.587 33.54 17.8848C34.11 18.1426 34.5386 18.527 34.8146 19.1159C35.1938 19.9181 35.6584 20.6803 36.0781 21.4626C36.1746 21.6426 36.2464 21.8381 36.3564 22.0937C36.132 22.1714 35.9794 22.2358 35.8178 22.2782C29.6082 23.8938 23.4276 25.6092 17.3055 27.5203C16.5201 27.7648 15.7166 27.9559 14.9245 28.187C13.6857 28.5469 12.4514 28.918 11.2148 29.2826C10.6987 29.4337 10.1825 29.5804 9.66633 29.727C9.3903 29.8048 9.10978 29.867 8.83823 29.9581C8.51059 30.067 8.37368 30.2515 8.40958 30.4803C8.44102 30.687 8.65197 30.7292 9.02898 30.6182C16.9307 28.2804 24.8257 25.9226 32.7769 23.7538C33.7441 23.4893 34.7205 23.2515 35.6943 23.0093C36.0376 22.9249 36.3899 22.867 36.8276 22.7803C37.0587 23.187 37.2429 23.4893 37.4065 23.8027C40.075 28.9136 42.777 34.0069 45.3937 39.1447C46.684 41.6803 47.8174 44.2937 49.0225 46.8737C50.9637 51.0315 52.9049 55.1914 54.844 59.3515C54.9023 59.4758 54.9427 59.6093 54.9786 59.7004C54.9023 59.9693 54.7047 59.9625 54.5364 59.9959C51.3003 60.6382 48.044 61.1692 44.7631 61.5426C41.4708 61.9181 38.2864 62.767 35.1287 63.7291C34.2378 64.0003 33.3514 64.2914 32.4785 64.6115C29.7472 65.6138 26.9376 66.3358 24.0919 66.9248C23.6027 67.027 23.0999 67.0736 22.5996 67.1269C21.9487 67.1959 21.4976 66.9359 21.2553 66.3159C20.9972 65.6536 20.6898 65.0093 20.4407 64.3447C19.4824 61.7714 18.1875 59.3536 16.9756 56.8981C15.6201 54.1558 14.2961 51.3959 12.9294 48.658C11.1318 45.0604 9.29155 41.4848 7.49172 37.8892C6.15419 35.2159 4.83012 32.536 3.54197 29.8403C2.74303 28.1693 2.08101 26.4425 1.71969 24.6181C1.66583 24.3404 1.62544 24.0558 1.62319 23.7758C1.6187 23.2536 1.88352 22.8982 2.3907 22.7448L2.38845 22.7404ZM19.3388 68.7559C18.9707 68.6959 18.9169 68.427 18.8136 68.2137C16.8387 64.0737 14.8639 59.9315 12.8957 55.7871C12.3302 54.5981 11.8454 53.3693 11.2215 52.2136C10.3418 50.5849 9.72693 48.8404 8.88535 47.1936C8.02808 45.5159 7.2718 43.787 6.4639 42.0826C5.67169 40.4115 4.85257 38.7514 4.07384 37.0758C3.11332 35.0115 2.19545 32.927 1.47732 30.767C1.1968 29.9249 0.976867 29.0626 0.76367 28.2025C0.611065 27.5848 0.783867 27.0781 1.54465 26.7404C1.93738 27.7092 2.30767 28.6248 2.68245 29.5381C2.84402 29.9314 3.01908 30.3226 3.19635 30.7093C4.65733 33.9137 6.30679 37.0271 7.90241 40.1669C9.7561 43.8136 11.5357 47.4981 13.3558 51.1625C14.7315 53.9337 16.1139 56.7048 17.5075 59.467C18.3423 61.1203 19.1143 62.798 19.783 64.5248C20.1421 65.4492 20.5484 66.3559 20.9546 67.3225C20.4092 67.807 19.8593 68.2958 19.3388 68.7582V68.7559ZM55.111 61.6669C54.7183 61.967 54.2492 62.0382 53.8004 62.1381C52.0163 62.5382 50.2254 62.9049 48.4457 63.3181C45.9324 63.9025 43.4322 64.5425 40.9142 65.1092C38.2572 65.707 35.591 66.2714 32.9204 66.8091C29.6171 67.4736 26.3047 68.0914 22.9967 68.7313C22.4335 68.8403 21.8724 68.9559 21.3069 69.0581C20.959 69.1203 20.6067 69.1625 19.9986 69.2492C20.4967 68.4782 21.087 68.1892 21.5627 67.7337C22.7612 67.9625 23.9147 67.667 25.0636 67.4092C27.6894 66.8225 30.2746 66.1091 32.8127 65.2026C36.1566 64.0091 39.5722 63.0493 43.0844 62.4626C44.321 62.2559 45.5754 62.1425 46.8142 61.9469C49.2582 61.5647 51.6975 61.1558 54.1392 60.7513C54.4512 60.7003 54.7564 60.5893 55.1132 60.707V61.6625L55.111 61.6669ZM86.3814 52.0625C86.2198 52.3515 85.9011 52.587 85.6049 52.7648C85.2077 53.0003 84.7679 53.1693 84.3369 53.3448C79.8127 55.1736 75.1739 56.6204 70.3961 57.6604C66.792 58.4448 63.2214 59.3891 59.6442 60.2892C58.7421 60.5158 57.8669 60.8447 56.9804 61.1292C56.6438 61.2381 56.3093 61.3537 55.9009 61.4914V60.5047C56.8479 59.9869 57.8376 59.6758 58.8205 59.3492C62.5953 58.0981 66.4217 57.0202 70.2524 55.9538C74.0855 54.8871 77.8468 53.5958 81.5743 52.2181C83.1228 51.6469 84.604 50.927 86.038 50.1136C86.2781 49.9781 86.5363 49.8758 86.8369 49.7358C86.967 50.6247 86.7674 51.3736 86.3837 52.0604L86.3814 52.0625ZM88.3361 46.9136C88.3226 47.0425 88.2933 47.1692 88.2507 47.2914C88.2081 47.4159 88.1498 47.5359 88.0803 47.6537C88.0466 47.7114 88.0084 47.7714 87.968 47.827C87.9478 47.8558 87.9277 47.8848 87.9052 47.9137C87.8626 47.9715 87.82 48.0248 87.7706 48.0737C87.6515 48.1981 87.5057 48.2892 87.2971 48.3071C87.1758 48.3182 86.9874 48.4137 86.9581 48.5092C86.9401 48.5692 86.9177 48.6225 86.8907 48.6738C86.8123 48.8226 86.7 48.9315 86.5721 49.0226C86.4869 49.0826 86.3949 49.1359 86.3006 49.1848C86.2086 49.2359 86.1143 49.2848 86.0246 49.3381C85.7845 49.4804 85.5443 49.6181 85.302 49.7537C85.0595 49.8893 84.8149 50.0181 84.5682 50.147C84.0743 50.4025 83.5762 50.6426 83.0713 50.8693C82.5663 51.0981 82.0547 51.3136 81.5385 51.5181C81.0224 51.7225 80.5016 51.9181 79.9765 52.1026C76.6058 53.2915 73.2081 54.398 69.7768 55.3982C68.6321 55.7315 67.4854 56.0537 66.3342 56.3626C65.9189 56.4737 65.5037 56.587 65.0908 56.7025C62.6065 57.3959 60.1424 58.1648 57.7119 59.0291C57.3058 59.1738 56.9018 59.3203 56.5001 59.4693C56.3027 59.5425 56.0963 59.5891 55.8943 59.6492C55.8044 59.5803 55.7281 59.5048 55.6653 59.4225C55.6024 59.3425 55.5486 59.2558 55.5015 59.1692C55.432 59.0382 55.3758 58.9026 55.3196 58.7693C55.3018 58.7248 55.2815 58.6803 55.2613 58.6381C54.9875 58.0491 54.7159 57.4604 54.4444 56.8693C53.6321 55.098 52.8286 53.3248 51.9915 51.5648C51.2286 49.9581 50.4768 48.3448 49.7272 46.7314C48.603 44.3115 47.4829 41.8893 46.3249 39.4848C45.5529 37.8826 44.7653 36.287 43.9507 34.7048C43.5422 33.9137 43.1293 33.1247 42.7051 32.3427C40.7124 28.6447 38.7239 24.9447 36.7357 21.2449C36.5493 20.9004 36.3698 20.5537 36.1881 20.2049C36.0086 19.8558 35.8312 19.5093 35.6516 19.1604C35.5889 19.0381 35.5552 18.9181 35.5416 18.8003C35.5395 18.7759 35.5351 18.7537 35.5351 18.7292C35.5283 18.4981 35.6226 18.2803 35.8134 18.0826C35.9861 17.9048 36.1678 17.727 36.3698 17.5826C36.601 17.4181 36.8546 17.2781 37.1104 17.1492C37.216 17.0959 37.3281 17.0426 37.447 16.987C37.6827 16.8781 37.943 16.7692 38.219 16.6604C40.0167 15.9492 42.5457 15.2515 44.2402 15.0337C44.2873 15.0959 44.3322 15.1648 44.3771 15.2337C44.5679 15.5337 44.7428 15.867 45.1222 16.0159C45.2208 16.0559 45.3196 16.0937 45.4207 16.1337C45.6203 16.2137 45.8223 16.2959 46.0356 16.3848C46.1433 16.4292 46.2509 16.4737 46.3654 16.5181C46.3249 16.5981 46.298 16.6715 46.269 16.7381C46.2397 16.8026 46.2105 16.8603 46.1679 16.9026C45.764 17.3092 45.3781 17.7315 45.0031 18.1626C44.4443 18.8115 43.9148 19.4826 43.3919 20.1604C42.8713 20.8381 42.3573 21.5249 41.8344 22.2003C41.5448 22.5737 41.2487 22.9003 40.8447 23.0825C40.7101 23.1425 40.5619 23.1892 40.4004 23.2137C40.3218 23.2248 40.2342 23.2492 40.167 23.2914C40.1445 23.3048 40.1244 23.3203 40.1087 23.3382C40.0659 23.3848 40.0188 23.4448 39.9851 23.5048C39.9515 23.567 39.9313 23.627 39.9449 23.6759C39.9582 23.7248 40.0032 23.7737 40.0615 23.8159C40.1199 23.856 40.1872 23.8915 40.2478 23.9114C40.3353 23.9427 40.4587 23.8959 40.5575 23.8625C40.8671 23.7603 41.1792 23.6803 41.4933 23.6138C41.7042 23.5693 41.9151 23.5315 42.1284 23.4981C42.5525 23.4314 42.9834 23.3827 43.4144 23.3315C43.7374 23.2937 44.0628 23.2536 44.3884 23.207C44.4961 23.1915 44.6061 23.1759 44.7137 23.1581C45.0391 23.1048 45.3645 23.0403 45.6899 22.9581C45.71 23.4603 45.6922 23.9448 45.7774 24.3937C45.8156 24.5938 45.8739 24.7848 45.9637 24.9693C46.0309 25.107 46.1163 25.2381 46.2264 25.3647C46.3722 25.536 46.5293 25.6871 46.6952 25.8204C46.9443 26.0204 47.216 26.1804 47.5077 26.2981C47.7994 26.4159 48.1135 26.4937 48.4503 26.5271C48.8811 26.5714 49.2806 26.5004 49.6643 26.3537C49.8551 26.2803 50.0437 26.1892 50.2298 26.0848C50.4161 25.9803 50.6001 25.8626 50.7841 25.7358C50.8335 25.8359 50.8829 25.9337 50.9302 26.0292C51.0692 26.3136 51.197 26.5714 51.3295 26.8292C51.3834 26.9314 51.4328 27.0359 51.4845 27.1381C51.6371 27.4492 51.7874 27.7649 51.987 28.0404C52.4517 28.6781 52.9095 29.3181 53.3606 29.9648C53.8117 30.6091 54.2583 31.2604 54.6981 31.9115C55.5799 33.2158 56.4441 34.5315 57.3013 35.8536C59.0136 38.4959 60.6945 41.1581 62.4248 43.7893C62.5213 43.9381 62.6222 44.0848 62.7254 44.2269C62.8286 44.3692 62.9386 44.5092 63.0554 44.6425C63.0643 44.6536 63.08 44.6627 63.098 44.6692C63.1025 44.6692 63.1069 44.6736 63.1114 44.6736C63.1294 44.6803 63.1519 44.6847 63.1744 44.6893C63.1989 44.6914 63.2237 44.6937 63.2483 44.6937C63.2528 44.6937 63.2596 44.6937 63.264 44.6937C63.2888 44.6937 63.3134 44.6914 63.3359 44.6847C63.3696 44.6782 63.3988 44.6671 63.419 44.6515C63.4997 44.5871 63.5514 44.3892 63.511 44.2914C63.4796 44.2137 63.437 44.1381 63.3942 44.0649C63.3134 43.927 63.2193 43.7914 63.1317 43.6581C63.1317 43.6581 63.1294 43.6537 63.1273 43.6514C60.8067 40.0603 58.4839 36.4692 56.1635 32.8781C56.112 32.7981 56.0626 32.7182 56.0132 32.6382C55.9121 32.4781 55.8135 32.3181 55.7124 32.1582C55.8224 32.0692 55.9121 32.0671 55.9884 32.1003C56.0469 32.1248 56.0961 32.1693 56.1455 32.2092C56.1614 32.2226 56.1792 32.2358 56.1949 32.247C56.5989 32.5448 56.9984 32.8426 57.4001 33.1426C57.8018 33.4425 58.2011 33.7427 58.603 34.0426C58.7173 34.127 58.8318 34.2137 58.9462 34.2981C59.0607 34.3826 59.1775 34.467 59.2964 34.5449C59.3638 34.5892 59.4333 34.6337 59.5052 34.6603C59.5522 34.6782 59.6016 34.6893 59.651 34.687C59.6756 34.687 59.7004 34.6826 59.725 34.6759C59.7744 34.6626 59.8261 34.6337 59.8776 34.5871C59.927 34.5426 59.9495 34.4802 59.945 34.4137C59.9382 34.3004 59.8596 34.1648 59.725 34.0514C59.6442 33.9826 59.5567 33.9204 59.4691 33.8558C58.4076 33.0647 57.3395 32.2826 56.2868 31.4825C56.1185 31.3559 55.9526 31.2271 55.7887 31.0959C55.4589 30.8337 55.138 30.5649 54.826 30.287C54.3569 29.8693 53.9126 29.427 53.502 28.9514C53.2281 28.6336 52.97 28.3026 52.73 27.9538C52.7007 27.9093 52.6694 27.8648 52.6401 27.8203C52.5505 27.687 52.4606 27.5537 52.3887 27.4114C51.9826 26.6136 51.5765 25.8181 51.197 25.0092C50.8178 24.2004 50.4632 23.3827 50.1582 22.5448C49.9562 21.9848 49.7743 21.4159 49.624 20.8358C49.4623 20.2181 49.2806 19.6027 49.0809 18.9959C49.0494 18.9026 49.0203 18.8137 48.9889 18.7292C48.5356 17.447 48.1182 16.9137 46.996 16.0403C46.949 15.9248 46.9017 15.8115 46.8591 15.6981C46.8142 15.587 46.7716 15.4759 46.7268 15.367C46.6393 15.1492 46.5494 14.9381 46.4506 14.7337C46.4237 14.6804 46.3923 14.6337 46.3565 14.5937C46.2846 14.5137 46.1971 14.4581 46.0983 14.4137C45.9996 14.3692 45.8919 14.3359 45.7819 14.3004C45.618 14.247 45.4476 14.187 45.2994 14.0759C45.3353 14.0292 45.369 13.9826 45.4027 13.9381C45.4677 13.847 45.526 13.7603 45.5911 13.687C45.6248 13.6492 45.6585 13.6159 45.6967 13.5848C45.7662 13.5292 45.8357 13.4781 45.9076 13.4315C46.0513 13.3359 46.2016 13.2559 46.3565 13.1892C46.4349 13.1559 46.5136 13.1248 46.592 13.0959C46.9108 12.9848 47.2474 12.9203 47.5885 12.8915C50.0594 12.6804 52.0971 13.5048 53.6455 15.447C53.6747 15.4848 53.7017 15.5248 53.7286 15.5648C53.7824 15.6448 53.8341 15.7248 53.8946 15.7959C53.9844 15.8981 54.0696 15.9803 54.1549 16.0403C54.4107 16.2181 54.6689 16.1981 55.0212 15.987C55.5441 15.6737 56.0581 15.3492 56.5652 15.0137C58.8565 13.4848 61.1456 11.9515 63.4347 10.4203C63.7263 10.2248 64.0248 10.0381 64.3412 9.83369C64.4826 9.97814 64.6196 10.1226 64.7497 10.267C65.1448 10.7026 65.4903 11.1426 65.7663 11.627C65.8831 11.8315 65.9819 12.0337 66.0626 12.2359C66.1434 12.4381 66.2085 12.6381 66.2534 12.8381C66.2757 12.9381 66.296 13.0381 66.3117 13.1381C66.3431 13.3381 66.3566 13.5359 66.3543 13.7315C66.3475 14.3226 66.1996 14.9048 65.9257 15.4781C65.7888 15.7648 65.6205 16.0492 65.4229 16.3292C65.3714 16.4026 65.3197 16.4737 65.2659 16.5448C65.1605 16.687 65.0526 16.8292 64.9517 16.9759C64.9023 17.0492 64.8529 17.1226 64.808 17.2004C64.8014 17.2092 64.7991 17.2226 64.7946 17.2359C64.7923 17.2492 64.7902 17.2648 64.7923 17.2803C64.7923 17.3137 64.7991 17.3492 64.8103 17.3848C64.8148 17.4026 64.8216 17.4203 64.8283 17.4381C64.8485 17.4892 64.8777 17.5337 64.9068 17.5559C64.918 17.5626 64.9293 17.5692 64.9449 17.5737C64.9875 17.5892 65.0482 17.5959 65.1043 17.5937C65.1425 17.5937 65.1806 17.587 65.2099 17.5759C65.2389 17.5648 65.2659 17.5537 65.2794 17.5359C65.69 17.0003 66.0872 16.4537 66.4552 15.8915C66.6214 15.6359 66.7403 15.3492 66.8794 15.0515C66.8997 15.0092 66.9175 14.967 66.94 14.9248C67.3798 15.1248 67.7277 15.3892 67.9994 15.7092C68.134 15.8692 68.2506 16.0426 68.3494 16.2292C68.4482 16.4159 68.5289 16.6159 68.5963 16.8292C68.7241 17.2403 68.7848 17.6581 68.7714 18.0781C68.7623 18.3292 68.7286 18.5804 68.6682 18.8314C68.6097 19.0737 68.5425 19.3115 68.4774 19.5538C68.3472 20.0336 68.2124 20.5115 68.0598 20.9848C67.7412 21.9692 67.5079 22.9671 67.3934 23.996C67.344 24.4292 67.3239 24.8559 67.3283 25.2759C67.3328 25.698 67.362 26.1136 67.418 26.5225C67.4742 26.9337 67.5528 27.3381 67.6581 27.7382C67.6942 27.8715 67.73 28.0048 67.7705 28.1359C68.0104 28.9292 68.3472 29.7003 68.7735 30.4536C69.5815 31.8849 70.5375 33.2158 71.6775 34.4114C72.9455 35.7449 74.2112 37.0781 75.4768 38.4114C76.7427 39.7448 78.0105 41.0781 79.2808 42.4092C79.5388 42.6804 79.8171 42.9315 80.0999 43.1781C80.1942 43.2604 80.2885 43.3426 80.3827 43.4247C80.3983 43.4381 80.4163 43.4493 80.432 43.4604C80.5285 43.5269 80.6497 43.5758 80.7642 43.5893C80.8473 43.6004 80.9594 43.5181 81.0289 43.447C81.065 43.4115 81.0605 43.3048 81.0357 43.2469C81.002 43.1693 80.955 43.0914 80.8988 43.0248C80.8876 43.0093 80.8787 42.9959 80.8653 42.9825C80.4545 42.5604 80.0416 42.1404 79.6287 41.7181C78.3921 40.4559 77.1556 39.1936 75.9258 37.9225C74.8329 36.7937 73.7645 35.6426 72.6784 34.5048C72.4001 34.2137 72.1309 33.9158 71.8683 33.6136C71.0806 32.7047 70.3624 31.7449 69.7117 30.7248C68.9442 29.5204 68.4437 28.2804 68.1968 27.0069C68.0914 26.4627 68.0308 25.9092 68.0172 25.3515C68.0083 24.9804 68.0195 24.6049 68.0509 24.2271C68.1137 23.4715 68.2574 22.707 68.4774 21.9292C68.5268 21.7581 68.5783 21.5893 68.63 21.4181C68.7892 20.9093 68.9622 20.4049 69.1125 19.8936C69.2134 19.5515 69.2964 19.207 69.3526 18.8581C69.3952 18.5959 69.4221 18.3315 69.4289 18.0648C69.4311 17.9759 69.4311 17.8848 69.4289 17.7959C69.3997 16.5026 68.8812 15.4626 67.8646 14.6604C67.6134 14.4626 67.3529 14.2759 67.1825 14.1492C67.0142 13.4092 66.8592 12.7248 66.7022 12.0359C66.6506 11.807 66.5966 11.5759 66.5451 11.3426C66.8234 11.3181 67.0701 11.3737 67.2878 11.4804C67.3417 11.507 67.3957 11.5359 67.4472 11.5692C67.5998 11.667 67.7389 11.787 67.8669 11.9204C67.9903 12.0492 68.1115 12.1781 68.2305 12.3115C68.3494 12.4426 68.4662 12.5781 68.5827 12.7137C68.8117 12.987 69.0317 13.267 69.2358 13.5581C71.2309 16.3892 72.9319 19.3959 74.5904 22.427C74.9024 22.9958 75.21 23.5693 75.5173 24.1425C75.8247 24.7159 76.1299 25.2892 76.4352 25.8626C77.0456 27.0092 77.6605 28.1536 78.2911 29.2914C80.6968 33.6203 83.3629 37.7936 86.0291 41.9693C86.3163 42.4181 86.6014 42.8714 86.8751 43.3292C87.012 43.5582 87.1489 43.787 87.2814 44.0204C87.4137 44.2536 87.5438 44.4849 87.6718 44.7181C87.8715 45.0892 88.0129 45.4936 88.1409 45.9025C88.1835 46.0381 88.2261 46.1737 88.2687 46.3093C88.3114 46.4449 88.3338 46.5803 88.3383 46.7115C88.3406 46.7782 88.3383 46.8426 88.3315 46.9071L88.3361 46.9136ZM45.1536 15.1048C45.8245 14.8959 45.8963 14.9404 45.9143 15.5537C45.5979 15.507 45.295 15.4515 45.1536 15.1048ZM48.0306 22.8625C47.5885 22.9026 47.1711 22.7803 46.8277 22.4959C46.2622 22.027 46.1836 21.0892 46.6887 20.4758C47.1194 19.9536 47.629 19.5093 48.3359 19.0981C48.8296 20.1692 48.9866 21.2226 49.3321 22.2182C49.0248 22.7425 48.5243 22.8159 48.0283 22.8604L48.0306 22.8625ZM49.4915 23.1182C49.9405 23.6492 50.1065 24.2936 50.3466 24.8738C50.1603 25.3826 49.79 25.6292 49.3256 25.7692C48.8317 25.9159 48.356 25.927 47.8668 25.7226C46.684 25.2337 46.2936 24.5847 46.5 23.2158C47.5435 23.6358 48.5131 23.6581 49.4915 23.1182ZM47.5257 18.8003C47.335 18.9603 47.1351 19.1092 46.9466 19.2738C45.9054 20.1803 45.7976 20.3782 45.6227 21.7092C45.3399 21.9182 45.066 21.7759 44.8664 21.5981C44.6934 21.4447 44.5342 21.2048 44.5005 20.9848C44.46 20.7204 44.4937 20.4049 44.6061 20.1627C44.8259 19.6847 45.075 19.2026 45.3982 18.7892C45.8785 18.1781 46.4349 17.627 47.0206 16.9803C47.5885 17.3426 47.8354 17.8026 48.0777 18.3315C47.8937 18.4892 47.7097 18.647 47.5234 18.8003H47.5257ZM44.5948 22.4493C44.2648 22.5158 43.9911 22.5714 43.7285 22.6226C43.5333 22.2958 43.3559 22.0026 43.1494 21.6603C43.2976 21.4737 43.4682 21.2581 43.641 21.0449C43.9551 21.5092 44.247 21.9382 44.5948 22.4493Z" fill="#203136"/>
<path d="M49.7246 46.7401C50.4741 48.3534 51.2239 49.9668 51.9891 51.5734C51.226 49.9668 50.4741 48.3534 49.7246 46.7401Z" fill="#203136"/>
<path d="M59.5117 34.6736C59.5589 34.6914 59.6086 34.7025 59.6582 34.7004C59.6086 34.7004 59.5589 34.6914 59.5117 34.6736Z" fill="#203136"/>
<path d="M55.8891 59.6537C55.7992 59.5849 55.7229 59.5093 55.6602 59.427C55.7229 59.507 55.7992 59.5849 55.8891 59.6537C56.0909 59.5937 56.2973 59.5471 56.4949 59.4738C56.8989 59.3248 57.3029 59.176 57.7067 59.0337C57.3006 59.1783 56.8966 59.3248 56.4949 59.4738C56.2973 59.5471 56.0909 59.5937 55.8891 59.6537Z" fill="#203136"/>
<path d="M46.7313 15.3756C46.6437 15.1579 46.5539 14.9467 46.4551 14.7423C46.5562 14.949 46.6437 15.1579 46.7313 15.3756Z" fill="#203136"/>
<path d="M49.6271 20.8446C49.4655 20.2269 49.2837 19.6113 49.084 19.0046C49.286 19.6113 49.4679 20.2269 49.6271 20.8446Z" fill="#203136"/>
<path d="M51.1973 25.0182C50.8181 24.2093 50.4634 23.3915 50.1582 22.5538C50.4634 23.3938 50.8181 24.2116 51.1973 25.0182Z" fill="#203136"/>
<path d="M45.418 16.142C45.6176 16.222 45.8197 16.3042 46.0329 16.3931C45.8197 16.3064 45.6176 16.222 45.418 16.142Z" fill="#203136"/>
<path d="M40.3951 23.2203C40.3167 23.2314 40.2293 23.2559 40.1621 23.2979C40.2293 23.2559 40.3167 23.2337 40.3951 23.2203Z" fill="#203136"/>
<path d="M88.3352 46.9139C88.3217 47.0428 88.2925 47.1695 88.25 47.2916C88.2925 47.1672 88.3217 47.0428 88.3352 46.9139Z" fill="#203136"/>
<path d="M35.5419 18.8087C35.5396 18.7839 35.5352 18.7614 35.5352 18.7367C35.5352 18.7592 35.5396 18.7839 35.5419 18.8087Z" fill="#203136"/>
<path d="M55.6596 59.4281C55.5969 59.3482 55.5432 59.2616 55.4961 59.1752C55.5432 59.2616 55.5947 59.3482 55.6596 59.4281Z" fill="#203136"/>
<path d="M63.0977 44.6798C63.0977 44.6798 63.1081 44.6844 63.1133 44.6844C63.1081 44.6844 63.1029 44.6798 63.0977 44.6798Z" fill="#203136"/>
<path d="M65.0879 56.7071C65.5031 56.5917 65.9161 56.4783 66.3313 56.3673C67.4825 56.0583 68.6316 55.7361 69.7739 55.4028C68.6293 55.7361 67.4825 56.0583 66.3313 56.3673C65.9161 56.4783 65.501 56.5917 65.0879 56.7071Z" fill="#203136"/>
<path d="M85.301 49.7557C85.5435 49.6201 85.7858 49.4824 86.0236 49.3401C85.7835 49.4824 85.5435 49.6201 85.301 49.7557Z" fill="#203136"/>
<path d="M40.0547 23.8223C40.1134 23.8624 40.1807 23.898 40.2416 23.918C40.1807 23.898 40.1134 23.8645 40.0547 23.8223Z" fill="#203136"/>
<path d="M86.9559 48.5116C86.9381 48.5716 86.9156 48.6249 86.8887 48.6759C86.9156 48.627 86.9381 48.5716 86.9559 48.5116C86.9851 48.4161 87.1736 48.3183 87.2948 48.3093C87.1736 48.3204 86.9851 48.4161 86.9559 48.5116Z" fill="#203136"/>
<path d="M71.6746 34.4179C70.5368 33.22 69.5786 31.8911 68.7706 30.4601C68.3465 29.7068 68.0099 28.9356 67.7676 28.1422C68.0077 28.9356 68.3443 29.7068 68.7706 30.4601C69.5786 31.8911 70.5346 33.2223 71.6746 34.4179Z" fill="#203136"/>
<path d="M67.3287 25.2805C67.3243 24.8584 67.3467 24.4317 67.3938 24.0005C67.3444 24.434 67.3243 24.8605 67.3287 25.2805Z" fill="#203136"/>
<path d="M63.1295 43.6628C63.1295 43.6628 63.1319 43.6672 63.134 43.6695C63.134 43.6695 63.1319 43.6649 63.1295 43.6628Z" fill="#203136"/>
<path d="M74.9065 46.1095C75.58 46.0872 76.2553 46.0451 76.9264 45.985C77.5345 45.9317 78.1562 45.8805 78.7464 45.7227C79.7721 45.4473 81.1971 44.5271 81.0803 43.3095C81.0691 43.1894 81.0017 43.1072 80.9165 43.0606C80.9097 43.0515 80.9031 43.045 80.8964 43.036C80.9525 43.1028 80.9996 43.1783 81.0333 43.2583C81.0579 43.3183 81.0623 43.4228 81.0265 43.4583C80.957 43.5272 80.8446 43.6094 80.7617 43.6006C80.6473 43.5872 80.526 43.5383 80.4296 43.4715C80.4385 43.4783 80.4474 43.4873 80.4586 43.4917C80.4184 43.9027 80.1131 44.2383 79.8011 44.5051C79.3814 44.8606 78.8856 45.0739 78.3491 45.1916C77.1867 45.4473 75.9367 45.4693 74.7495 45.505C72.2877 45.5783 69.8167 45.4095 67.3909 44.9939C66.0422 44.7628 64.7091 44.4562 63.3962 44.0805C63.4388 44.1539 63.4793 44.2295 63.513 44.3071C63.5533 44.4049 63.5017 44.605 63.421 44.6671C63.4006 44.6828 63.3716 44.6938 63.3379 44.7005C65.8266 45.4049 68.3851 45.8538 70.9658 46.0383C72.2764 46.1315 73.5938 46.1561 74.9065 46.1116V46.1095Z" fill="#203136"/>
<path d="M67.865 14.674C68.8816 15.4762 69.4022 16.5162 69.4291 17.8095C69.3999 16.5162 68.8816 15.4762 67.865 14.674Z" fill="#203136"/>
<path d="M63.0531 44.6516C62.9363 44.5182 62.8261 44.378 62.7227 44.2355C62.8284 44.3803 62.9363 44.5182 63.0531 44.6516Z" fill="#203136"/>
<path d="M72.6793 34.5162C72.401 34.2251 72.1318 33.9272 71.8691 33.625C72.1318 33.9272 72.4033 34.2251 72.6793 34.5162C73.7633 35.6538 74.8337 36.8051 75.9267 37.9339C77.1565 39.2028 78.3929 40.4651 79.6295 41.7295C78.3929 40.4672 77.1565 39.2051 75.9267 37.9339C74.8337 36.8051 73.7654 35.6538 72.6793 34.5162Z" fill="#203136"/>
<path d="M46.9985 16.0471C46.9512 15.9315 46.9042 15.8182 46.8616 15.7048C46.9065 15.816 46.9512 15.9315 46.9985 16.0471Z" fill="#203136"/>
<path d="M59.948 34.4252C59.9525 34.494 59.9301 34.5538 59.8808 34.5982C59.8293 34.6448 59.7801 34.6737 59.7285 34.6869C59.7777 34.6737 59.8293 34.6448 59.8808 34.5982C59.9301 34.5538 59.9525 34.4917 59.948 34.4252Z" fill="#203136"/>
<path d="M66.4584 15.8975C66.0902 16.4619 65.6932 17.0064 65.2824 17.5419C65.6932 17.0064 66.0902 16.4597 66.4584 15.8975Z" fill="#203136"/>
<path d="M59.4753 33.8651C59.5605 33.9295 59.648 33.9919 59.7311 34.0607C59.6503 33.9919 59.5628 33.9295 59.4753 33.8651Z" fill="#203136"/>
<path d="M59.5099 34.6733C59.4381 34.6467 59.3685 34.6045 59.3011 34.5577C59.1822 34.4777 59.0656 34.3954 58.9512 34.311C59.0656 34.3954 59.1822 34.48 59.3011 34.5577C59.3685 34.6022 59.4381 34.6467 59.5099 34.6733Z" fill="#203136"/>
<path d="M53.649 15.4565C53.6782 15.4942 53.7052 15.5342 53.7321 15.5742C53.7052 15.5342 53.6806 15.4942 53.649 15.4565C52.1006 13.512 50.0629 12.6898 47.592 12.9009C50.0629 12.6898 52.1006 13.5142 53.649 15.4565Z" fill="#203136"/>
<path d="M64.9109 17.5631C64.9109 17.5631 64.9335 17.5765 64.9494 17.581C64.9358 17.5765 64.9223 17.5698 64.9109 17.5631C64.8794 17.5408 64.8523 17.4962 64.832 17.4448C64.8523 17.4962 64.8817 17.5408 64.9109 17.5631Z" fill="#203136"/>
<path d="M65.4246 16.3361C65.622 16.0539 65.7905 15.7716 65.9272 15.485C65.7905 15.7716 65.622 16.0561 65.4246 16.3361Z" fill="#203136"/>
<path d="M45 18.1694C45.3724 17.7383 45.7584 17.3161 46.1648 16.9094C45.7608 17.3161 45.3748 17.7361 45 18.1694Z" fill="#203136"/>
<path d="M39.9805 23.5144C40.0143 23.4519 40.0615 23.3917 40.1044 23.3471C40.0615 23.394 40.0143 23.4542 39.9805 23.5144Z" fill="#203136"/>
<path d="M64.7969 17.2894C64.7969 17.3229 64.8036 17.3586 64.8148 17.3944C64.8036 17.3586 64.7992 17.3229 64.7969 17.2894Z" fill="#203136"/>
<path d="M41.8315 22.2066C42.3567 21.5311 42.8684 20.8467 43.389 20.1666C42.8684 20.8444 42.3544 21.5311 41.8315 22.2066Z" fill="#203136"/>
<path d="M66.3125 13.1443C66.3439 13.3443 66.3574 13.542 66.3551 13.7376C66.3551 13.5398 66.3439 13.3421 66.3125 13.1443Z" fill="#203136"/>
<path d="M44.3749 15.2398C44.33 15.1709 44.2874 15.102 44.238 15.0398C42.5435 15.2576 40.0122 15.9554 38.2168 16.6665C40.0145 15.9554 42.5435 15.2576 44.238 15.0398C44.2851 15.102 44.33 15.1709 44.3749 15.2398Z" fill="#203136"/>
<path d="M53.3547 29.9739C52.9036 29.3293 52.4457 28.6872 51.9811 28.0494C51.7791 27.7717 51.6288 27.4583 51.4785 27.1472C51.6311 27.4583 51.7814 27.7738 51.9811 28.0494C52.4457 28.6872 52.9036 29.3272 53.3547 29.9739Z" fill="#203136"/>
<path d="M50.9208 26.0385C50.8738 25.9428 50.8267 25.8473 50.775 25.7451C50.591 25.8719 50.4047 25.9896 50.2207 26.094C50.407 25.9896 50.591 25.8719 50.775 25.7451C50.8244 25.8452 50.8738 25.9428 50.9208 26.0385Z" fill="#203136"/>
<path d="M68.4779 19.5576C68.3478 20.0376 68.2132 20.5156 68.0605 20.9889C68.2132 20.5156 68.3501 20.0376 68.4779 19.5576Z" fill="#203136"/>
<path d="M49.6566 26.3646C49.2729 26.5113 48.8757 26.5825 48.4426 26.538C48.1081 26.5025 47.794 26.427 47.5 26.3092C47.7917 26.427 48.1058 26.5046 48.4426 26.538C48.8734 26.5825 49.2729 26.5113 49.6566 26.3646Z" fill="#203136"/>
<path d="M67.2898 11.4912C67.0721 11.3845 66.8252 11.3267 66.5469 11.3534C66.8252 11.3289 67.0721 11.3845 67.2898 11.4912Z" fill="#203136"/>
<path d="M74.5897 22.436C74.9017 23.0048 75.209 23.5783 75.5166 24.1515C75.209 23.5783 74.9017 23.0071 74.5897 22.436C72.9312 19.4049 71.2302 16.3982 69.2351 13.5671C69.0308 13.2782 68.8131 12.996 68.582 12.7227C68.811 12.996 69.0308 13.276 69.2351 13.5671C71.2302 16.3982 72.9312 19.4049 74.5897 22.436Z" fill="#203136"/>
<path d="M46.6866 25.8295C46.5206 25.6962 46.3635 25.5428 46.2175 25.374C46.1098 25.2473 46.0223 25.1163 45.9551 24.9784C46.0223 25.1163 46.1077 25.2473 46.2175 25.374C46.3635 25.5451 46.5206 25.6962 46.6866 25.8295Z" fill="#203136"/>
<path d="M88.1408 45.9097C88.0106 45.5029 87.8716 45.0963 87.6717 44.7252C87.5439 44.4895 87.4137 44.2584 87.2812 44.0273C87.4137 44.2584 87.5439 44.4918 87.6717 44.7252C87.8716 45.0963 88.013 45.5008 88.1408 45.9097Z" fill="#203136"/>
<path d="M69.3535 18.8713C69.3961 18.6091 69.423 18.3447 69.4298 18.078C69.423 18.3469 69.3961 18.6113 69.3535 18.8713Z" fill="#203136"/>
</g>
<defs>
<clipPath id="clip0_1_1474">
<rect width="89.0909" height="70" fill="white"/>
</clipPath>
</defs>
</svg>
