<svg width="84" height="84" viewBox="0 0 84 84" fill="none" xmlns="http://www.w3.org/2000/svg">
<g filter="url(#filter0_d_389_70)">
<rect x="10.8246" y="11" width="62.0585" height="62.0585" rx="31.0292" fill="white" shape-rendering="crispEdges"/>
<path d="M41.8538 27.9192C34.065 27.9192 27.7437 34.2405 27.7437 42.0293C27.7437 49.8181 34.065 56.1395 41.8538 56.1395C49.6426 56.1395 55.9639 49.8181 55.9639 42.0293C55.9639 34.2405 49.6426 27.9192 41.8538 27.9192ZM48.4009 37.5141C48.1892 39.7435 47.2721 45.1618 46.8064 47.6593C46.6089 48.7175 46.2138 49.0703 45.847 49.1126C45.0286 49.1832 44.4077 48.5764 43.6176 48.0544C42.3759 47.236 41.6704 46.728 40.471 45.9378C39.0741 45.0207 39.9771 44.5127 40.7814 43.6943C40.9931 43.4827 44.6053 40.195 44.6758 39.8987C44.6856 39.8538 44.6843 39.8072 44.672 39.763C44.6597 39.7187 44.6368 39.6781 44.6053 39.6447C44.5206 39.5742 44.4077 39.6024 44.309 39.6165C44.182 39.6447 42.2065 40.957 38.3545 43.5532C37.7901 43.9342 37.2821 44.1317 36.8306 44.1176C36.3226 44.1035 35.3631 43.8354 34.6435 43.5956C33.7546 43.3133 33.0632 43.1581 33.1196 42.6643C33.1478 42.4103 33.5006 42.1563 34.1638 41.8882C38.2839 40.0962 41.0213 38.911 42.39 38.3466C46.3126 36.7098 47.1169 36.4276 47.6531 36.4276C47.7659 36.4276 48.034 36.4558 48.2034 36.5969C48.3445 36.7098 48.3868 36.865 48.4009 36.9779C48.3868 37.0626 48.415 37.3165 48.4009 37.5141Z" fill="#203136"/>
</g>
<defs>
<filter id="filter0_d_389_70" x="0.37263" y="0.548045" width="82.9624" height="82.9625" filterUnits="userSpaceOnUse" color-interpolation-filters="sRGB">
<feFlood flood-opacity="0" result="BackgroundImageFix"/>
<feColorMatrix in="SourceAlpha" type="matrix" values="0 0 0 0 0 0 0 0 0 0 0 0 0 0 0 0 0 0 127 0" result="hardAlpha"/>
<feOffset/>
<feGaussianBlur stdDeviation="5.22598"/>
<feComposite in2="hardAlpha" operator="out"/>
<feColorMatrix type="matrix" values="0 0 0 0 0.058125 0 0 0 0 0.288635 0 0 0 0 0.516667 0 0 0 0.1 0"/>
<feBlend mode="normal" in2="BackgroundImageFix" result="effect1_dropShadow_389_70"/>
<feBlend mode="normal" in="SourceGraphic" in2="effect1_dropShadow_389_70" result="shape"/>
</filter>
</defs>
</svg>
