<svg width="84" height="84" viewBox="0 0 84 84" fill="none" xmlns="http://www.w3.org/2000/svg">
<g filter="url(#filter0_d_389_72)">
<rect x="10.8831" y="11" width="62.0585" height="62.0585" rx="31.0292" fill="white" shape-rendering="crispEdges"/>
<path d="M57.6024 33.0293C56.4474 33.5543 55.2024 33.8993 53.9124 34.0643C55.2324 33.2693 56.2524 32.0093 56.7324 30.4943C55.4874 31.2443 54.1074 31.7693 52.6524 32.0693C51.4674 30.7793 49.8024 30.0293 47.9124 30.0293C44.3874 30.0293 41.5074 32.9093 41.5074 36.4643C41.5074 36.9743 41.5674 37.4693 41.6724 37.9343C36.3324 37.6643 31.5774 35.0993 28.4124 31.2143C27.8574 32.1593 27.5424 33.2693 27.5424 34.4393C27.5424 36.6743 28.6674 38.6543 30.4074 39.7793C29.3424 39.7793 28.3524 39.4793 27.4824 39.0293V39.0743C27.4824 42.1943 29.7024 44.8043 32.6424 45.3893C31.6985 45.6476 30.7076 45.6836 29.7474 45.4943C30.1548 46.773 30.9527 47.8919 32.0289 48.6937C33.1052 49.4955 34.4056 49.9398 35.7474 49.9643C33.4729 51.765 30.6534 52.7383 27.7524 52.7243C27.2424 52.7243 26.7324 52.6943 26.2224 52.6343C29.0724 54.4643 32.4624 55.5293 36.0924 55.5293C47.9124 55.5293 54.4074 45.7193 54.4074 37.2143C54.4074 36.9293 54.4074 36.6593 54.3924 36.3743C55.6524 35.4743 56.7324 34.3343 57.6024 33.0293Z" fill="#203136"/>
</g>
<defs>
<filter id="filter0_d_389_72" x="0.431102" y="0.548045" width="82.9624" height="82.9625" filterUnits="userSpaceOnUse" color-interpolation-filters="sRGB">
<feFlood flood-opacity="0" result="BackgroundImageFix"/>
<feColorMatrix in="SourceAlpha" type="matrix" values="0 0 0 0 0 0 0 0 0 0 0 0 0 0 0 0 0 0 127 0" result="hardAlpha"/>
<feOffset/>
<feGaussianBlur stdDeviation="5.22598"/>
<feComposite in2="hardAlpha" operator="out"/>
<feColorMatrix type="matrix" values="0 0 0 0 0.058125 0 0 0 0 0.288635 0 0 0 0 0.516667 0 0 0 0.1 0"/>
<feBlend mode="normal" in2="BackgroundImageFix" result="effect1_dropShadow_389_72"/>
<feBlend mode="normal" in="SourceGraphic" in2="effect1_dropShadow_389_72" result="shape"/>
</filter>
</defs>
</svg>
